<!DOCTYPE svg PUBLIC "-//W3C//DTD SVG 1.1//EN" "http://www.w3.org/Graphics/SVG/1.1/DTD/svg11.dtd">
<svg xmlns="http://www.w3.org/2000/svg" xmlns:xlink="http://www.w3.org/1999/xlink" version="1.1" viewBox="0 0 2480 1748" style="background: #ffffff"><g id="v-3"  transform="matrix(1,0,0,1,0,0)"><g id="j_2083"    transform="translate(20,1703)"><g id="v-30546"><text  id="v-30547" font-size="22px" y="0.8em" xml:space="preserve" font-weight="normal" text-anchor="start" fill="#777777" pointer-events="none" font-family="Open Sans" transform="matrix(1,0,0,1,0,0)" display="block"><tspan id="v-30548"  dy="0em" x="0">Diagram rendered: Wed Jun 17 2020 12:35:24 GMT-0400 (EDT)</tspan></text></g></g><g id="j_2082"    transform="translate(20,1674)"><g id="v-30542"><text  id="v-30543" font-size="22px" y="0.8em" xml:space="preserve" font-weight="normal" text-anchor="start" fill="#777777" pointer-events="none" font-family="Open Sans" transform="matrix(1,0,0,1,0,0)" display="block"><tspan id="v-30544"  dy="0em" x="0">Dashed boundary = ERNIE project.</tspan></text></g></g><g id="j_2081"    transform="translate(20,1628)"><g id="v-30538"><text  id="v-30539" font-size="36px" y="0.8em" xml:space="preserve" font-weight="normal" text-anchor="start" fill="#000000" pointer-events="none" font-family="Open Sans" transform="matrix(1,0,0,1,0,0)" display="block"><tspan id="v-30540"  dy="0em" x="0">System Context diagram for ERNIE</tspan></text></g></g><g id="j_2065"    transform="translate(720,315)" style=""><g id="v-30250"><rect  id="v-30251" width="1120" height="1143" rx="0" ry="0" fill="#ffffff" stroke="#444444" stroke-width="2" stroke-dasharray="20,20" pointer-events="none"></rect><text  id="v-30252" font-size="24px" y="1104" xml:space="preserve" font-weight="normal" fill="#444444" x="10" text-anchor="start" pointer-events="visible" font-family="Open Sans" transform="matrix(1,0,0,1,15,0)"><tspan id="v-30254"  dy="0em" x="0">Enterprise</tspan></text><text  id="v-30253" font-size="19px" y="1128" xml:space="preserve" font-weight="normal" fill="#444444" x="10" text-anchor="start" pointer-events="visible" font-family="Open Sans" transform="matrix(1,0,0,1,15,0)"><tspan id="v-30255"  dy="0em" x="0">[Enterprise]</tspan></text></g></g><g id="j_2062"    transform="translate(10,50)" style="" ><g  id="v-30208" style="opacity: 1;"><rect  id="v-30209" rx="1" ry="1" stroke="#9fbfdd" stroke-width="2" pointer-events="visiblePainted" fill="#a0c3e5" width="450" height="300"></rect><text  id="v-30210" font-size="34" y="0.8em" xml:space="preserve" font-weight="bold" text-anchor="middle" pointer-events="visible" font-family="Open Sans" fill="#ffffff" transform="matrix(1,0,0,1,225,60)"><tspan id="v-30215"  dy="0em" x="0">Clinical Guidelines (CG)</tspan></text><text  id="v-30211" font-size="19" y="0.8em" xml:space="preserve" text-anchor="middle" font-family="Open Sans" fill="#ffffff" transform="matrix(1,0,0,1,225,100)"><tspan id="v-30216"  dy="0em" x="0">[Software System]</tspan></text><text  id="v-30212" font-size="24" y="0.8em" xml:space="preserve" text-anchor="middle" font-family="Open Sans" fill="#ffffff" transform="matrix(1,0,0,1,225,150)"><tspan id="v-30217"  dy="0em" x="0">AHRQ's National Guideline</tspan><tspan id="v-30218"  dy="1.2em" x="0">Clearinghouse data mapped to</tspan><tspan id="v-30219"  dy="1.2em" x="0">PubMed, WoS and NIH projects</tspan></text><text  id="v-30213" font-weight="bold" text-anchor="middle" font-family="Open Sans" fill="#ffffff" font-size="24" transform="matrix(1,0,0,1,225,270)" y="0.8em" display="none" xml:space="preserve"><tspan id="v-30220"  dy="0em" x="0" style="fill-opacity: 0; stroke-opacity: 0;">-</tspan></text><image  id="v-30214"></image></g></g><g id="j_2063"    transform="translate(10,420)" style="" ><g  id="v-30224" style="opacity: 1;"><rect  id="v-30225" rx="1" ry="1" stroke="#0f5eaa" stroke-width="2" pointer-events="visiblePainted" fill="#1168bd" width="450" height="300"></rect><text  id="v-30226" font-size="34" y="0.8em" xml:space="preserve" font-weight="bold" text-anchor="middle" pointer-events="visible" font-family="Open Sans" fill="#ffffff" transform="matrix(1,0,0,1,225,90)"><tspan id="v-30231"  dy="0em" x="0">Clinical Trials (CT)</tspan></text><text  id="v-30227" font-size="19" y="0.8em" xml:space="preserve" text-anchor="middle" font-family="Open Sans" fill="#ffffff" transform="matrix(1,0,0,1,225,130)"><tspan id="v-30232"  dy="0em" x="0">[Software System]</tspan></text><text  id="v-30228" font-size="24" y="0.8em" xml:space="preserve" text-anchor="middle" font-family="Open Sans" fill="#ffffff" transform="matrix(1,0,0,1,225,180)"><tspan id="v-30233"  dy="0em" x="0">clinicaltrials.gov data</tspan></text><text  id="v-30229" font-weight="bold" text-anchor="middle" font-family="Open Sans" fill="#ffffff" font-size="24" transform="matrix(1,0,0,1,225,270)" y="0.8em" display="none" xml:space="preserve"><tspan id="v-30234"  dy="0em" x="0" style="fill-opacity: 0; stroke-opacity: 0;">-</tspan></text><image  id="v-30230"></image></g></g><g id="j_2064"    transform="translate(1080,335)" style="" ><g  id="v-30238" style="opacity: 1;"><rect  id="v-30239" rx="1" ry="1" stroke="#0f5eaa" stroke-width="2" pointer-events="visiblePainted" fill="#1168bd" width="450" height="300"></rect><text  id="v-30240" font-size="34" y="0.8em" xml:space="preserve" font-weight="bold" text-anchor="middle" pointer-events="visible" font-family="Open Sans" fill="#ffffff" transform="matrix(1,0,0,1,225,75)"><tspan id="v-30245"  dy="0em" x="0">ERNIE</tspan></text><text  id="v-30241" font-size="19" y="0.8em" xml:space="preserve" text-anchor="middle" font-family="Open Sans" fill="#ffffff" transform="matrix(1,0,0,1,225,115)"><tspan id="v-30246"  dy="0em" x="0">[Software System]</tspan></text><text  id="v-30242" font-size="24" y="0.8em" xml:space="preserve" text-anchor="middle" font-family="Open Sans" fill="#ffffff" transform="matrix(1,0,0,1,225,165)"><tspan id="v-30247"  dy="0em" x="0">Enhanced Research Network</tspan><tspan id="v-30248"  dy="1.2em" x="0">Informatics Environment</tspan></text><text  id="v-30243" font-weight="bold" text-anchor="middle" font-family="Open Sans" fill="#ffffff" font-size="24" transform="matrix(1,0,0,1,225,270)" y="0.8em" display="none" xml:space="preserve"><tspan id="v-30256"  dy="0em" x="0" style="fill-opacity: 0; stroke-opacity: 0;">-</tspan></text><image  id="v-30244"></image></g></g><g id="j_2066"    transform="translate(740,965)" style=""><g  id="v-30258" style="opacity: 1;"><rect  x="0" y="160" width="400" height="240" rx="70" id="v-30260" stroke="#073b6f" stroke-width="2" pointer-events="visiblePainted" fill="#08427b"></rect><circle  cx="200" cy="88.88888888888889" r="88.88888888888889" id="v-30259" stroke="#073b6f" stroke-width="2" pointer-events="visiblePainted" fill="#08427b"></circle><line  x1="80" y1="266.6666666666667" x2="80" y2="400" style="stroke-width:2px" id="v-30266" stroke="#073b6f"></line><line  x1="320" y1="266.6666666666667" x2="320" y2="400" style="stroke-width:2px" id="v-30267" stroke="#073b6f"></line><text  id="v-30261" font-size="34px" y="0.8em" xml:space="preserve" font-weight="bold" text-anchor="middle" pointer-events="visible" font-family="Open Sans" fill="#ffffff" transform="matrix(1,0,0,1,200,235)"><tspan id="v-30268"  dy="0em" x="0">ERNIE staff</tspan></text><text  id="v-30262" font-size="19px" y="0.8em" xml:space="preserve" text-anchor="middle" font-family="Open Sans" fill="#ffffff" transform="matrix(1,0,0,1,200,275)"><tspan id="v-30269"  dy="0em" x="0">[Person]</tspan></text><text  id="v-30263" font-size="24px" y="0.8em" display="none" xml:space="preserve" text-anchor="middle" font-family="Open Sans" fill="#ffffff" transform="matrix(1,0,0,1,200,325)"><tspan id="v-30270"  dy="0em" x="0" style="fill-opacity: 0; stroke-opacity: 0;">-</tspan></text><text  id="v-30264" font-weight="bold" text-anchor="middle" font-family="Open Sans" fill="#ffffff" font-size="24" transform="matrix(1,0,0,1,200,371.2)" display="none"></text><image  id="v-30265"></image></g></g><g id="j_2067"    transform="translate(1420,965)" style=""><g  id="v-30274" style="opacity: 1;"><rect  x="0" y="160" width="400" height="240" rx="70" id="v-30276" stroke="#073b6f" stroke-width="2" pointer-events="visiblePainted" fill="#08427b"></rect><circle  cx="200" cy="88.88888888888889" r="88.88888888888889" id="v-30275" stroke="#073b6f" stroke-width="2" pointer-events="visiblePainted" fill="#08427b"></circle><line  x1="80" y1="266.6666666666667" x2="80" y2="400" style="stroke-width:2px" id="v-30282" stroke="#073b6f"></line><line  x1="320" y1="266.6666666666667" x2="320" y2="400" style="stroke-width:2px" id="v-30283" stroke="#073b6f"></line><text  id="v-30277" font-size="34px" y="0.8em" xml:space="preserve" font-weight="bold" text-anchor="middle" pointer-events="visible" font-family="Open Sans" fill="#ffffff" transform="matrix(1,0,0,1,200,235)"><tspan id="v-30284"  dy="0em" x="0">External Collaborator</tspan></text><text  id="v-30278" font-size="19px" y="0.8em" xml:space="preserve" text-anchor="middle" font-family="Open Sans" fill="#ffffff" transform="matrix(1,0,0,1,200,275)"><tspan id="v-30285"  dy="0em" x="0">[Person]</tspan></text><text  id="v-30279" font-size="24px" y="0.8em" display="none" xml:space="preserve" text-anchor="middle" font-family="Open Sans" fill="#ffffff" transform="matrix(1,0,0,1,200,325)"><tspan id="v-30286"  dy="0em" x="0" style="fill-opacity: 0; stroke-opacity: 0;">-</tspan></text><text  id="v-30280" font-weight="bold" text-anchor="middle" font-family="Open Sans" fill="#ffffff" font-size="24" transform="matrix(1,0,0,1,200,371.2)" display="none"></text><image  id="v-30281"></image></g></g><g id="j_2068"    transform="translate(10,795)" style="" ><g  id="v-30292" style="opacity: 1;"><rect  id="v-30293" rx="1" ry="1" stroke="#0f5eaa" stroke-width="2" pointer-events="visiblePainted" fill="#1168bd" width="450" height="300"></rect><text  id="v-30294" font-size="34" y="0.8em" xml:space="preserve" font-weight="bold" text-anchor="middle" pointer-events="visible" font-family="Open Sans" fill="#ffffff" transform="matrix(1,0,0,1,225,90)"><tspan id="v-30299"  dy="0em" x="0">IP DataDirect (LexisNexis)</tspan></text><text  id="v-30295" font-size="19" y="0.8em" xml:space="preserve" text-anchor="middle" font-family="Open Sans" fill="#ffffff" transform="matrix(1,0,0,1,225,130)"><tspan id="v-30300"  dy="0em" x="0">[Software System]</tspan></text><text  id="v-30296" font-size="24" y="0.8em" xml:space="preserve" text-anchor="middle" font-family="Open Sans" fill="#ffffff" transform="matrix(1,0,0,1,225,180)"><tspan id="v-30301"  dy="0em" x="0">Worldwide Patent Information</tspan></text><text  id="v-30297" font-weight="bold" text-anchor="middle" font-family="Open Sans" fill="#ffffff" font-size="24" transform="matrix(1,0,0,1,225,270)" y="0.8em" display="none" xml:space="preserve"><tspan id="v-30302"  dy="0em" x="0" style="fill-opacity: 0; stroke-opacity: 0;">-</tspan></text><image  id="v-30298"></image></g></g><g id="j_2069"    transform="translate(2020,1050)" style="" ><g  id="v-30306" style="opacity: 1;"><rect  id="v-30307" rx="1" ry="1" stroke="#0f5eaa" stroke-width="2" pointer-events="visiblePainted" fill="#1168bd" width="450" height="300"></rect><text  id="v-30308" font-size="34" y="0.8em" xml:space="preserve" font-weight="bold" text-anchor="middle" pointer-events="visible" font-family="Open Sans" fill="#ffffff" transform="matrix(1,0,0,1,225,75)"><tspan id="v-30313"  dy="0em" x="0">NIH Projects</tspan></text><text  id="v-30309" font-size="19" y="0.8em" xml:space="preserve" text-anchor="middle" font-family="Open Sans" fill="#ffffff" transform="matrix(1,0,0,1,225,115)"><tspan id="v-30314"  dy="0em" x="0">[Software System]</tspan></text><text  id="v-30310" font-size="24" y="0.8em" xml:space="preserve" text-anchor="middle" font-family="Open Sans" fill="#ffffff" transform="matrix(1,0,0,1,225,165)"><tspan id="v-30315"  dy="0em" x="0">Data on funded NIH grants and other</tspan><tspan id="v-30316"  dy="1.2em" x="0">projects from NIH ExPORTER</tspan></text><text  id="v-30311" font-weight="bold" text-anchor="middle" font-family="Open Sans" fill="#ffffff" font-size="24" transform="matrix(1,0,0,1,225,270)" y="0.8em" display="none" xml:space="preserve"><tspan id="v-30317"  dy="0em" x="0" style="fill-opacity: 0; stroke-opacity: 0;">-</tspan></text><image  id="v-30312"></image></g></g><g id="j_2070"    transform="translate(2020,50)" style="" ><g  id="v-30323" style="opacity: 1;"><rect  id="v-30324" rx="1" ry="1" stroke="#0f5eaa" stroke-width="2" pointer-events="visiblePainted" fill="#1168bd" width="450" height="300"></rect><text  id="v-30325" font-size="34" y="0.8em" xml:space="preserve" font-weight="bold" text-anchor="middle" pointer-events="visible" font-family="Open Sans" fill="#ffffff" transform="matrix(1,0,0,1,225,90)"><tspan id="v-30330"  dy="0em" x="0">Scopus (Elsevier)</tspan></text><text  id="v-30326" font-size="19" y="0.8em" xml:space="preserve" text-anchor="middle" font-family="Open Sans" fill="#ffffff" transform="matrix(1,0,0,1,225,130)"><tspan id="v-30331"  dy="0em" x="0">[Software System]</tspan></text><text  id="v-30327" font-size="24" y="0.8em" xml:space="preserve" text-anchor="middle" font-family="Open Sans" fill="#ffffff" transform="matrix(1,0,0,1,225,180)"><tspan id="v-30332"  dy="0em" x="0">Abstract and Citation Database</tspan></text><text  id="v-30328" font-weight="bold" text-anchor="middle" font-family="Open Sans" fill="#ffffff" font-size="24" transform="matrix(1,0,0,1,225,270)" y="0.8em" display="none" xml:space="preserve"><tspan id="v-30333"  dy="0em" x="0" style="fill-opacity: 0; stroke-opacity: 0;">-</tspan></text><image  id="v-30329"></image></g></g><g id="j_2071"    transform="translate(10,1190)" style="" ><g  id="v-30339" style="opacity: 1;"><rect  id="v-30340" rx="1" ry="1" stroke="#0f5eaa" stroke-width="2" pointer-events="visiblePainted" fill="#1168bd" width="450" height="300"></rect><text  id="v-30341" font-size="34" y="0.8em" xml:space="preserve" font-weight="bold" text-anchor="middle" pointer-events="visible" font-family="Open Sans" fill="#ffffff" transform="matrix(1,0,0,1,225,70)"><tspan id="v-30346"  dy="0em" x="0">US Drugs and Biological</tspan><tspan id="v-30347"  dy="1.2em" x="0">Products (FDA)</tspan></text><text  id="v-30342" font-size="19" y="0.8em" xml:space="preserve" text-anchor="middle" font-family="Open Sans" fill="#ffffff" transform="matrix(1,0,0,1,225,150)"><tspan id="v-30348"  dy="0em" x="0">[Software System]</tspan></text><text  id="v-30343" font-size="24" y="0.8em" xml:space="preserve" text-anchor="middle" font-family="Open Sans" fill="#ffffff" transform="matrix(1,0,0,1,225,200)"><tspan id="v-30349"  dy="0em" x="0">FDA Orange and Purple Books</tspan></text><text  id="v-30344" font-weight="bold" text-anchor="middle" font-family="Open Sans" fill="#ffffff" font-size="24" transform="matrix(1,0,0,1,225,270)" y="0.8em" display="none" xml:space="preserve"><tspan id="v-30350"  dy="0em" x="0" style="fill-opacity: 0; stroke-opacity: 0;">-</tspan></text><image  id="v-30345"></image></g></g><g id="j_2072"   ><path  stroke="#707070" id="v-30368" stroke-width="2" stroke-dasharray="30 30" fill="none" d="M 1080 503 480 550" style="opacity: 1;"></path><path  fill="black" stroke="black" transform="translate(1080,503) scale(1,1) rotate(-184.51882934570312)"></path><path  fill="#707070" stroke="#707070" id="v-30370" d="M 20 0 L 0 10 L 20 20 z" transform="translate(459.2121216533958,542.0311090295671) scale(1,1) rotate(-4.518822193145752)" style="opacity: 1;"></path><path  id="v-30369" fill="none" d="M 1080 503 480 550"></path><title ></title><g ><g  id="v-30356" label-idx="0" cursor="move" transform="translate(780, 526.5)" style="opacity: 1;"><rect id="v-30358" fill="#ffffff" rx="3" ry="3" stroke="#ffffff" stroke-width="20px" pointer-events="none" width="37.875" height="31.671875" transform="matrix(1,0,0,1,-18.9,-15.9)"></rect><text id="v-30357" font-size="24px" y="0.8em" xml:space="preserve" text-anchor="middle" pointer-events="none" fill="#707070" font-family="Open Sans" font-weight="normal" transform="matrix(1,0,0,1,0,-10.2)"><tspan id="v-30359"  dy="0em" x="0">ETL</tspan></text></g><g  id="v-30360" label-idx="1" cursor="move" transform="translate(780, 557.7)" style="opacity: 1;"><rect id="v-30362" fill="#ffffff" rx="3" ry="3" pointer-events="none" width="425.96875" height="25.34375" transform="matrix(1,0,0,1,-213,-12.7)"></rect><text id="v-30361" font-size="19px" y="0.8em" xml:space="preserve" text-anchor="middle" pointer-events="none" fill="#707070" font-family="Open Sans" font-weight="normal" transform="matrix(1,0,0,1,0,-8)"><tspan id="v-30363"  dy="0em" x="0">[Jenkins, Bash, HTTP, XML, SQL, Postgres, Python]</tspan></text></g><g  id="v-30364" label-idx="2" cursor="move" transform="translate(780, 581.7)" style="opacity: 1;"><rect id="v-30366" fill="#ffffff" rx="3" ry="3" pointer-events="none"  display="none" width="0" height="0" transform="matrix(1,0,0,1,0,0)"></rect><text id="v-30365" font-size="19px" y="0.8em" display="none" xml:space="preserve" text-anchor="middle" pointer-events="none" fill="#707070" font-family="Open Sans" font-weight="normal"  transform="matrix(1,0,0,1,0,0)"><tspan id="v-30367"  dy="0em" x="0" style="fill-opacity: 0; stroke-opacity: 0;">-</tspan></text></g></g><g  display="none"></g><g  id="v-30372" display="none"><g  id="v-30353"><path  end="source" d="M 26 0 L 0 13 L 26 26 z"></path></g><g  id="v-30354"><path  end="target" d="M 26 0 L 0 13 L 26 26 z"></path></g></g><g  id="v-30371" display="none"><g  id="v-30352" transform="translate(1040.1220703125, 506.12371826171875) "><g  event="remove"><circle r="11"></circle><path transform="scale(.8) translate(-16, -16)" d="M24.778,21.419 19.276,15.917 24.777,10.415 21.949,7.585 16.447,13.087 10.945,7.585 8.117,10.415 13.618,15.917 8.116,21.419 10.946,24.248 16.447,18.746 21.948,24.248z"></path><title>Remove link.</title></g><g  event="link:options"><circle r="11" transform="translate(25)"></circle><path fill="white" transform="scale(.55) translate(29, -16)" d="M31.229,17.736c0.064-0.571,0.104-1.148,0.104-1.736s-0.04-1.166-0.104-1.737l-4.377-1.557c-0.218-0.716-0.504-1.401-0.851-2.05l1.993-4.192c-0.725-0.91-1.549-1.734-2.458-2.459l-4.193,1.994c-0.647-0.347-1.334-0.632-2.049-0.849l-1.558-4.378C17.165,0.708,16.588,0.667,16,0.667s-1.166,0.041-1.737,0.105L12.707,5.15c-0.716,0.217-1.401,0.502-2.05,0.849L6.464,4.005C5.554,4.73,4.73,5.554,4.005,6.464l1.994,4.192c-0.347,0.648-0.632,1.334-0.849,2.05l-4.378,1.557C0.708,14.834,0.667,15.412,0.667,16s0.041,1.165,0.105,1.736l4.378,1.558c0.217,0.715,0.502,1.401,0.849,2.049l-1.994,4.193c0.725,0.909,1.549,1.733,2.459,2.458l4.192-1.993c0.648,0.347,1.334,0.633,2.05,0.851l1.557,4.377c0.571,0.064,1.148,0.104,1.737,0.104c0.588,0,1.165-0.04,1.736-0.104l1.558-4.377c0.715-0.218,1.399-0.504,2.049-0.851l4.193,1.993c0.909-0.725,1.733-1.549,2.458-2.458l-1.993-4.193c0.347-0.647,0.633-1.334,0.851-2.049L31.229,17.736zM16,20.871c-2.69,0-4.872-2.182-4.872-4.871c0-2.69,2.182-4.872,4.872-4.872c2.689,0,4.871,2.182,4.871,4.872C20.871,18.689,18.689,20.871,16,20.871z"></path><title>Link options.</title></g></g></g></g><g id="j_2073"   ><path  stroke="#707070" id="v-30390" stroke-width="2" stroke-dasharray="30 30" fill="none" d="M 1117 635 439 1178" style="opacity: 1;"></path><path  fill="black" stroke="black" transform="translate(1117,635) scale(1,1) rotate(-218.64973449707028)"></path><path  fill="#707070" stroke="#707070" id="v-30392" d="M 20 0 L 0 10 L 20 20 z" transform="translate(416.75442006374095,1182.1901866067292) scale(1,1) rotate(-38.64973831176757)" style="opacity: 1;"></path><path  id="v-30391" fill="none" d="M 1117 635 439 1178"></path><title ></title><g ><g  id="v-30378" label-idx="0" cursor="move" transform="translate(778, 906.5)" style="opacity: 1;"><rect id="v-30380" fill="#ffffff" rx="3" ry="3" stroke="#ffffff" stroke-width="20px" pointer-events="none" width="37.875" height="31.671875" transform="matrix(1,0,0,1,-18.9,-15.9)"></rect><text id="v-30379" font-size="24px" y="0.8em" xml:space="preserve" text-anchor="middle" pointer-events="none" fill="#707070" font-family="Open Sans" font-weight="normal" transform="matrix(1,0,0,1,0,-10.2)"><tspan id="v-30381"  dy="0em" x="0">ETL</tspan></text></g><g  id="v-30382" label-idx="1" cursor="move" transform="translate(778, 937.7)" style="opacity: 1;"><rect id="v-30384" fill="#ffffff" rx="3" ry="3" pointer-events="none" width="351.21875" height="25.34375" transform="matrix(1,0,0,1,-175.6,-12.7)"></rect><text id="v-30383" font-size="19px" y="0.8em" xml:space="preserve" text-anchor="middle" pointer-events="none" fill="#707070" font-family="Open Sans" font-weight="normal" transform="matrix(1,0,0,1,0,-8)"><tspan id="v-30385"  dy="0em" x="0">[Jenkins, Bash, HTTP, CSV, SQL, Postgres]</tspan></text></g><g  id="v-30386" label-idx="2" cursor="move" transform="translate(778, 961.7)" style="opacity: 1;"><rect id="v-30388" fill="#ffffff" rx="3" ry="3" pointer-events="none"  display="none" width="0" height="0" transform="matrix(1,0,0,1,0,0)"></rect><text id="v-30387" font-size="19px" y="0.8em" display="none" xml:space="preserve" text-anchor="middle" pointer-events="none" fill="#707070" font-family="Open Sans" font-weight="normal"  transform="matrix(1,0,0,1,0,0)"><tspan id="v-30389"  dy="0em" x="0" style="fill-opacity: 0; stroke-opacity: 0;">-</tspan></text></g></g><g  display="none"></g><g  id="v-30394" display="none"><g  id="v-30375"><path  end="source" d="M 26 0 L 0 13 L 26 26 z"></path></g><g  id="v-30376"><path  end="target" d="M 26 0 L 0 13 L 26 26 z"></path></g></g><g  id="v-30393" display="none"><g  id="v-30374" transform="translate(1085.77880859375, 660.004638671875) "><g  event="remove"><circle r="11"></circle><path transform="scale(.8) translate(-16, -16)" d="M24.778,21.419 19.276,15.917 24.777,10.415 21.949,7.585 16.447,13.087 10.945,7.585 8.117,10.415 13.618,15.917 8.116,21.419 10.946,24.248 16.447,18.746 21.948,24.248z"></path><title>Remove link.</title></g><g  event="link:options"><circle r="11" transform="translate(25)"></circle><path fill="white" transform="scale(.55) translate(29, -16)" d="M31.229,17.736c0.064-0.571,0.104-1.148,0.104-1.736s-0.04-1.166-0.104-1.737l-4.377-1.557c-0.218-0.716-0.504-1.401-0.851-2.05l1.993-4.192c-0.725-0.91-1.549-1.734-2.458-2.459l-4.193,1.994c-0.647-0.347-1.334-0.632-2.049-0.849l-1.558-4.378C17.165,0.708,16.588,0.667,16,0.667s-1.166,0.041-1.737,0.105L12.707,5.15c-0.716,0.217-1.401,0.502-2.05,0.849L6.464,4.005C5.554,4.73,4.73,5.554,4.005,6.464l1.994,4.192c-0.347,0.648-0.632,1.334-0.849,2.05l-4.378,1.557C0.708,14.834,0.667,15.412,0.667,16s0.041,1.165,0.105,1.736l4.378,1.558c0.217,0.715,0.502,1.401,0.849,2.049l-1.994,4.193c0.725,0.909,1.549,1.733,2.459,2.458l4.192-1.993c0.648,0.347,1.334,0.633,2.05,0.851l1.557,4.377c0.571,0.064,1.148,0.104,1.737,0.104c0.588,0,1.165-0.04,1.736-0.104l1.558-4.377c0.715-0.218,1.399-0.504,2.049-0.851l4.193,1.993c0.909-0.725,1.733-1.549,2.458-2.458l-1.993-4.193c0.347-0.647,0.633-1.334,0.851-2.049L31.229,17.736zM16,20.871c-2.69,0-4.872-2.182-4.872-4.871c0-2.69,2.182-4.872,4.872-4.872c2.689,0,4.871,2.182,4.871,4.872C20.871,18.689,18.689,20.871,16,20.871z"></path><title>Link options.</title></g></g></g></g><g id="j_2074"   ><path  stroke="#707070" id="v-30412" stroke-width="2" stroke-dasharray="30 30" fill="none" d="M 1530 573 1533 574 S 1535 575 1543 582 L 2060 1037" style="opacity: 1;"></path><path  fill="black" stroke="black" transform="translate(1530,573) scale(1,1) rotate(21.801422119140625)"></path><path  fill="#707070" stroke="#707070" id="v-30414" d="M 20 0 L 0 10 L 20 20 z" transform="translate(2068.3952577732216,1057.508489408337) scale(1,1) rotate(-138.6641845703125)" style="opacity: 1;"></path><path  id="v-30413" fill="none" d="M 1530 573 1533 574 S 1535 575 1543 582 L 2060 1037"></path><title ></title><g ><g  id="v-30400" label-idx="0" cursor="move" transform="translate(1795.501953125, 804.2213134765625)" style="opacity: 1;"><rect id="v-30402" fill="#ffffff" rx="3" ry="3" stroke="#ffffff" stroke-width="20px" pointer-events="none" width="37.875" height="31.671875" transform="matrix(1,0,0,1,-18.9,-15.9)"></rect><text id="v-30401" font-size="24px" y="0.8em" xml:space="preserve" text-anchor="middle" pointer-events="none" fill="#707070" font-family="Open Sans" font-weight="normal" transform="matrix(1,0,0,1,0,-10.2)"><tspan id="v-30403"  dy="0em" x="0">ETL</tspan></text></g><g  id="v-30404" label-idx="1" cursor="move" transform="translate(1795.501953125, 835.4213134765625)" style="opacity: 1;"><rect id="v-30406" fill="#ffffff" rx="3" ry="3" pointer-events="none" width="421.8125" height="25.34375" transform="matrix(1,0,0,1,-210.9,-12.7)"></rect><text id="v-30405" font-size="19px" y="0.8em" xml:space="preserve" text-anchor="middle" pointer-events="none" fill="#707070" font-family="Open Sans" font-weight="normal" transform="matrix(1,0,0,1,0,-8)"><tspan id="v-30407"  dy="0em" x="0">[Jenkins, Bash, HTTP, CSV, SQL, Postgres, Python]</tspan></text></g><g  id="v-30408" label-idx="2" cursor="move" transform="translate(1795.501953125, 859.4213134765625)" style="opacity: 1;"><rect id="v-30410" fill="#ffffff" rx="3" ry="3" pointer-events="none"  display="none" width="0" height="0" transform="matrix(1,0,0,1,0,0)"></rect><text id="v-30409" font-size="19px" y="0.8em" display="none" xml:space="preserve" text-anchor="middle" pointer-events="none" fill="#707070" font-family="Open Sans" font-weight="normal"  transform="matrix(1,0,0,1,0,0)"><tspan id="v-30411"  dy="0em" x="0" style="fill-opacity: 0; stroke-opacity: 0;">-</tspan></text></g></g><g  display="none"><g  transform="translate(1535, 575)" id="v-30629"><circle  idx="0" r="10"></circle><path  idx="0" d="M16,5.333c-7.732,0-14,4.701-14,10.5c0,1.982,0.741,3.833,2.016,5.414L2,25.667l5.613-1.441c2.339,1.317,5.237,2.107,8.387,2.107c7.732,0,14-4.701,14-10.5C30,10.034,23.732,5.333,16,5.333z" transform="translate(5, -33)"></path><path  idx="0" transform="scale(.8) translate(9.5, -37)" d="M24.778,21.419 19.276,15.917 24.777,10.415 21.949,7.585 16.447,13.087 10.945,7.585 8.117,10.415 13.618,15.917 8.116,21.419 10.946,24.248 16.447,18.746 21.948,24.248z"><title>Remove vertex.</title></path></g></g><g  id="v-30416" display="none"><g  id="v-30397"><path  end="source" d="M 26 0 L 0 13 L 26 26 z"></path></g><g  id="v-30398"><path  end="target" d="M 26 0 L 0 13 L 26 26 z"></path></g></g><g  id="v-30415" display="none"><g  id="v-30396" transform="translate(1561.0313720703125, 597.8690185546875) "><g  event="remove"><circle r="11"></circle><path transform="scale(.8) translate(-16, -16)" d="M24.778,21.419 19.276,15.917 24.777,10.415 21.949,7.585 16.447,13.087 10.945,7.585 8.117,10.415 13.618,15.917 8.116,21.419 10.946,24.248 16.447,18.746 21.948,24.248z"></path><title>Remove link.</title></g><g  event="link:options"><circle r="11" transform="translate(25)"></circle><path fill="white" transform="scale(.55) translate(29, -16)" d="M31.229,17.736c0.064-0.571,0.104-1.148,0.104-1.736s-0.04-1.166-0.104-1.737l-4.377-1.557c-0.218-0.716-0.504-1.401-0.851-2.05l1.993-4.192c-0.725-0.91-1.549-1.734-2.458-2.459l-4.193,1.994c-0.647-0.347-1.334-0.632-2.049-0.849l-1.558-4.378C17.165,0.708,16.588,0.667,16,0.667s-1.166,0.041-1.737,0.105L12.707,5.15c-0.716,0.217-1.401,0.502-2.05,0.849L6.464,4.005C5.554,4.73,4.73,5.554,4.005,6.464l1.994,4.192c-0.347,0.648-0.632,1.334-0.849,2.05l-4.378,1.557C0.708,14.834,0.667,15.412,0.667,16s0.041,1.165,0.105,1.736l4.378,1.558c0.217,0.715,0.502,1.401,0.849,2.049l-1.994,4.193c0.725,0.909,1.549,1.733,2.459,2.458l4.192-1.993c0.648,0.347,1.334,0.633,2.05,0.851l1.557,4.377c0.571,0.064,1.148,0.104,1.737,0.104c0.588,0,1.165-0.04,1.736-0.104l1.558-4.377c0.715-0.218,1.399-0.504,2.049-0.851l4.193,1.993c0.909-0.725,1.733-1.549,2.458-2.458l-1.993-4.193c0.347-0.647,0.633-1.334,0.851-2.049L31.229,17.736zM16,20.871c-2.69,0-4.872-2.182-4.872-4.871c0-2.69,2.182-4.872,4.872-4.872c2.689,0,4.871,2.182,4.871,4.872C20.871,18.689,18.689,20.871,16,20.871z"></path><title>Link options.</title></g></g></g></g><g id="j_2075"   ><path  stroke="#c6c6c6" id="v-30434" stroke-width="2" stroke-dasharray="30 30" fill="none" d="M 1080 425 479 265" style="opacity: 1;"></path><path  fill="black" stroke="black" transform="translate(1080,425) scale(1,1) rotate(-165.09735107421878)"></path><path  fill="#c6c6c6" stroke="#c6c6c6" id="v-30436" d="M 20 0 L 0 10 L 20 20 z" transform="translate(462.5717680582718,250.33636073133) scale(1,1) rotate(14.902648925781293)" style="opacity: 1;"></path><path  id="v-30435" fill="none" d="M 1080 425 479 265"></path><title ></title><g ><g  id="v-30422" label-idx="0" cursor="move" transform="translate(779.5, 344.9999694824219)" style="opacity: 1;"><rect id="v-30424" fill="#ffffff" rx="3" ry="3" stroke="#ffffff" stroke-width="20px" pointer-events="none" width="37.875" height="31.671875" transform="matrix(1,0,0,1,-18.9,-15.9)"></rect><text id="v-30423" font-size="24px" y="0.8em" xml:space="preserve" text-anchor="middle" pointer-events="none" fill="#c6c6c6" font-family="Open Sans" font-weight="normal" transform="matrix(1,0,0,1,0,-10.2)"><tspan id="v-30425"  dy="0em" x="0">ETL</tspan></text></g><g  id="v-30426" label-idx="1" cursor="move" transform="translate(779.5, 376.19996948242186)" style="opacity: 1;"><rect id="v-30428" fill="#ffffff" rx="3" ry="3" pointer-events="none" width="470.3125" height="25.34375" transform="matrix(1,0,0,1,-235.2,-12.7)"></rect><text id="v-30427" font-size="19px" y="0.8em" xml:space="preserve" text-anchor="middle" pointer-events="none" fill="#c6c6c6" font-family="Open Sans" font-weight="normal" transform="matrix(1,0,0,1,0,-8)"><tspan id="v-30429"  dy="0em" x="0">[Jenkins, Bash, HTTP, XML, SQL, Postgres, Python, Java]</tspan></text></g><g  id="v-30430" label-idx="2" cursor="move" transform="translate(779.5, 400.19996948242186)" style="opacity: 1;"><rect id="v-30432" fill="#ffffff" rx="3" ry="3" pointer-events="none"  display="none" width="0" height="0" transform="matrix(1,0,0,1,0,0)"></rect><text id="v-30431" font-size="19px" y="0.8em" display="none" xml:space="preserve" text-anchor="middle" pointer-events="none" fill="#c6c6c6" font-family="Open Sans" font-weight="normal"  transform="matrix(1,0,0,1,0,0)"><tspan id="v-30433"  dy="0em" x="0" style="fill-opacity: 0; stroke-opacity: 0;">-</tspan></text></g></g><g  display="none"></g><g  id="v-30438" display="none"><g  id="v-30419"><path  end="source" d="M 26 0 L 0 13 L 26 26 z"></path></g><g  id="v-30420"><path  end="target" d="M 26 0 L 0 13 L 26 26 z"></path></g></g><g  id="v-30437" display="none"><g  id="v-30418" transform="translate(1041.346435546875, 414.70947265625) "><g  event="remove"><circle r="11"></circle><path transform="scale(.8) translate(-16, -16)" d="M24.778,21.419 19.276,15.917 24.777,10.415 21.949,7.585 16.447,13.087 10.945,7.585 8.117,10.415 13.618,15.917 8.116,21.419 10.946,24.248 16.447,18.746 21.948,24.248z"></path><title>Remove link.</title></g><g  event="link:options"><circle r="11" transform="translate(25)"></circle><path fill="white" transform="scale(.55) translate(29, -16)" d="M31.229,17.736c0.064-0.571,0.104-1.148,0.104-1.736s-0.04-1.166-0.104-1.737l-4.377-1.557c-0.218-0.716-0.504-1.401-0.851-2.05l1.993-4.192c-0.725-0.91-1.549-1.734-2.458-2.459l-4.193,1.994c-0.647-0.347-1.334-0.632-2.049-0.849l-1.558-4.378C17.165,0.708,16.588,0.667,16,0.667s-1.166,0.041-1.737,0.105L12.707,5.15c-0.716,0.217-1.401,0.502-2.05,0.849L6.464,4.005C5.554,4.73,4.73,5.554,4.005,6.464l1.994,4.192c-0.347,0.648-0.632,1.334-0.849,2.05l-4.378,1.557C0.708,14.834,0.667,15.412,0.667,16s0.041,1.165,0.105,1.736l4.378,1.558c0.217,0.715,0.502,1.401,0.849,2.049l-1.994,4.193c0.725,0.909,1.549,1.733,2.459,2.458l4.192-1.993c0.648,0.347,1.334,0.633,2.05,0.851l1.557,4.377c0.571,0.064,1.148,0.104,1.737,0.104c0.588,0,1.165-0.04,1.736-0.104l1.558-4.377c0.715-0.218,1.399-0.504,2.049-0.851l4.193,1.993c0.909-0.725,1.733-1.549,2.458-2.458l-1.993-4.193c0.347-0.647,0.633-1.334,0.851-2.049L31.229,17.736zM16,20.871c-2.69,0-4.872-2.182-4.872-4.871c0-2.69,2.182-4.872,4.872-4.872c2.689,0,4.871,2.182,4.871,4.872C20.871,18.689,18.689,20.871,16,20.871z"></path><title>Link options.</title></g></g></g></g><g id="j_2076"   ><path  stroke="#707070" id="v-30456" stroke-width="2" stroke-dasharray="30 30" fill="none" d="M 1530 417 2001 274" style="opacity: 1;"></path><path  fill="black" stroke="black" transform="translate(1530,417) scale(1,1) rotate(-16.91355323791504)"></path><path  fill="#707070" stroke="#707070" id="v-30458" d="M 20 0 L 0 10 L 20 20 z" transform="translate(2022.9092288869883,277.5674327310299) scale(1,1) rotate(-196.91355895996094)" style="opacity: 1;"></path><path  id="v-30457" fill="none" d="M 1530 417 2001 274"></path><title ></title><g ><g  id="v-30444" label-idx="0" cursor="move" transform="translate(1765.5, 345.5)" style="opacity: 1;"><rect id="v-30446" fill="#ffffff" rx="3" ry="3" stroke="#ffffff" stroke-width="20px" pointer-events="none" width="37.875" height="31.671875" transform="matrix(1,0,0,1,-18.9,-15.9)"></rect><text id="v-30445" font-size="24px" y="0.8em" xml:space="preserve" text-anchor="middle" pointer-events="none" fill="#707070" font-family="Open Sans" font-weight="normal" transform="matrix(1,0,0,1,0,-10.2)"><tspan id="v-30447"  dy="0em" x="0">ETL</tspan></text></g><g  id="v-30448" label-idx="1" cursor="move" transform="translate(1765.5, 376.7)" style="opacity: 1;"><rect id="v-30450" fill="#ffffff" rx="3" ry="3" pointer-events="none" width="425.96875" height="25.34375" transform="matrix(1,0,0,1,-213,-12.7)"></rect><text id="v-30449" font-size="19px" y="0.8em" xml:space="preserve" text-anchor="middle" pointer-events="none" fill="#707070" font-family="Open Sans" font-weight="normal" transform="matrix(1,0,0,1,0,-8)"><tspan id="v-30451"  dy="0em" x="0">[Jenkins, Bash, HTTP, XML, SQL, Postgres, Python]</tspan></text></g><g  id="v-30452" label-idx="2" cursor="move" transform="translate(1765.5, 400.7)" style="opacity: 1;"><rect id="v-30454" fill="#ffffff" rx="3" ry="3" pointer-events="none"  display="none" width="0" height="0" transform="matrix(1,0,0,1,0,0)"></rect><text id="v-30453" font-size="19px" y="0.8em" display="none" xml:space="preserve" text-anchor="middle" pointer-events="none" fill="#707070" font-family="Open Sans" font-weight="normal"  transform="matrix(1,0,0,1,0,0)"><tspan id="v-30455"  dy="0em" x="0" style="fill-opacity: 0; stroke-opacity: 0;">-</tspan></text></g></g><g  display="none"></g><g  id="v-30460" display="none"><g  id="v-30441"><path  end="source" d="M 26 0 L 0 13 L 26 26 z"></path></g><g  id="v-30442"><path  end="target" d="M 26 0 L 0 13 L 26 26 z"></path></g></g><g  id="v-30459" display="none"><g  id="v-30440" transform="translate(1568.2747802734375, 405.37939453125) "><g  event="remove"><circle r="11"></circle><path transform="scale(.8) translate(-16, -16)" d="M24.778,21.419 19.276,15.917 24.777,10.415 21.949,7.585 16.447,13.087 10.945,7.585 8.117,10.415 13.618,15.917 8.116,21.419 10.946,24.248 16.447,18.746 21.948,24.248z"></path><title>Remove link.</title></g><g  event="link:options"><circle r="11" transform="translate(25)"></circle><path fill="white" transform="scale(.55) translate(29, -16)" d="M31.229,17.736c0.064-0.571,0.104-1.148,0.104-1.736s-0.04-1.166-0.104-1.737l-4.377-1.557c-0.218-0.716-0.504-1.401-0.851-2.05l1.993-4.192c-0.725-0.91-1.549-1.734-2.458-2.459l-4.193,1.994c-0.647-0.347-1.334-0.632-2.049-0.849l-1.558-4.378C17.165,0.708,16.588,0.667,16,0.667s-1.166,0.041-1.737,0.105L12.707,5.15c-0.716,0.217-1.401,0.502-2.05,0.849L6.464,4.005C5.554,4.73,4.73,5.554,4.005,6.464l1.994,4.192c-0.347,0.648-0.632,1.334-0.849,2.05l-4.378,1.557C0.708,14.834,0.667,15.412,0.667,16s0.041,1.165,0.105,1.736l4.378,1.558c0.217,0.715,0.502,1.401,0.849,2.049l-1.994,4.193c0.725,0.909,1.549,1.733,2.459,2.458l4.192-1.993c0.648,0.347,1.334,0.633,2.05,0.851l1.557,4.377c0.571,0.064,1.148,0.104,1.737,0.104c0.588,0,1.165-0.04,1.736-0.104l1.558-4.377c0.715-0.218,1.399-0.504,2.049-0.851l4.193,1.993c0.909-0.725,1.733-1.549,2.458-2.458l-1.993-4.193c0.347-0.647,0.633-1.334,0.851-2.049L31.229,17.736zM16,20.871c-2.69,0-4.872-2.182-4.872-4.871c0-2.69,2.182-4.872,4.872-4.872c2.689,0,4.871,2.182,4.871,4.872C20.871,18.689,18.689,20.871,16,20.871z"></path><title>Link options.</title></g></g></g></g><g id="j_2077"   ><path  stroke="#707070" id="v-30478" stroke-width="2" stroke-dasharray="30 30" fill="none" d="M 1080 582 478 840" style="opacity: 1;"></path><path  fill="black" stroke="black" transform="translate(1080,582) scale(1,1) rotate(-203.22088623046875)"></path><path  fill="#707070" stroke="#707070" id="v-30480" d="M 20 0 L 0 10 L 20 20 z" transform="translate(456.0572240680533,838.8101053838092) scale(1,1) rotate(-23.22089385986328)" style="opacity: 1;"></path><path  id="v-30479" fill="none" d="M 1080 582 478 840"></path><title ></title><g ><g  id="v-30466" label-idx="0" cursor="move" transform="translate(779, 711)" style="opacity: 1;"><rect id="v-30468" fill="#ffffff" rx="3" ry="3" stroke="#ffffff" stroke-width="20px" pointer-events="none" width="37.875" height="31.671875" transform="matrix(1,0,0,1,-18.9,-15.9)"></rect><text id="v-30467" font-size="24px" y="0.8em" xml:space="preserve" text-anchor="middle" pointer-events="none" fill="#707070" font-family="Open Sans" font-weight="normal" transform="matrix(1,0,0,1,0,-10.2)"><tspan id="v-30469"  dy="0em" x="0">ETL</tspan></text></g><g  id="v-30470" label-idx="1" cursor="move" transform="translate(779, 742.2)" style="opacity: 1;"><rect id="v-30472" fill="#ffffff" rx="3" ry="3" pointer-events="none" width="425.96875" height="25.34375" transform="matrix(1,0,0,1,-213,-12.7)"></rect><text id="v-30471" font-size="19px" y="0.8em" xml:space="preserve" text-anchor="middle" pointer-events="none" fill="#707070" font-family="Open Sans" font-weight="normal" transform="matrix(1,0,0,1,0,-8)"><tspan id="v-30473"  dy="0em" x="0">[Jenkins, Bash, HTTP, XML, SQL, Postgres, Python]</tspan></text></g><g  id="v-30474" label-idx="2" cursor="move" transform="translate(779, 766.2)" style="opacity: 1;"><rect id="v-30476" fill="#ffffff" rx="3" ry="3" pointer-events="none"  display="none" width="0" height="0" transform="matrix(1,0,0,1,0,0)"></rect><text id="v-30475" font-size="19px" y="0.8em" display="none" xml:space="preserve" text-anchor="middle" pointer-events="none" fill="#707070" font-family="Open Sans" font-weight="normal"  transform="matrix(1,0,0,1,0,0)"><tspan id="v-30477"  dy="0em" x="0" style="fill-opacity: 0; stroke-opacity: 0;">-</tspan></text></g></g><g  display="none"></g><g  id="v-30482" display="none"><g  id="v-30463"><path  end="source" d="M 26 0 L 0 13 L 26 26 z"></path></g><g  id="v-30464"><path  end="target" d="M 26 0 L 0 13 L 26 26 z"></path></g></g><g  id="v-30481" display="none"><g  id="v-30462" transform="translate(1043.234130859375, 597.7567138671875) "><g  event="remove"><circle r="11"></circle><path transform="scale(.8) translate(-16, -16)" d="M24.778,21.419 19.276,15.917 24.777,10.415 21.949,7.585 16.447,13.087 10.945,7.585 8.117,10.415 13.618,15.917 8.116,21.419 10.946,24.248 16.447,18.746 21.948,24.248z"></path><title>Remove link.</title></g><g  event="link:options"><circle r="11" transform="translate(25)"></circle><path fill="white" transform="scale(.55) translate(29, -16)" d="M31.229,17.736c0.064-0.571,0.104-1.148,0.104-1.736s-0.04-1.166-0.104-1.737l-4.377-1.557c-0.218-0.716-0.504-1.401-0.851-2.05l1.993-4.192c-0.725-0.91-1.549-1.734-2.458-2.459l-4.193,1.994c-0.647-0.347-1.334-0.632-2.049-0.849l-1.558-4.378C17.165,0.708,16.588,0.667,16,0.667s-1.166,0.041-1.737,0.105L12.707,5.15c-0.716,0.217-1.401,0.502-2.05,0.849L6.464,4.005C5.554,4.73,4.73,5.554,4.005,6.464l1.994,4.192c-0.347,0.648-0.632,1.334-0.849,2.05l-4.378,1.557C0.708,14.834,0.667,15.412,0.667,16s0.041,1.165,0.105,1.736l4.378,1.558c0.217,0.715,0.502,1.401,0.849,2.049l-1.994,4.193c0.725,0.909,1.549,1.733,2.459,2.458l4.192-1.993c0.648,0.347,1.334,0.633,2.05,0.851l1.557,4.377c0.571,0.064,1.148,0.104,1.737,0.104c0.588,0,1.165-0.04,1.736-0.104l1.558-4.377c0.715-0.218,1.399-0.504,2.049-0.851l4.193,1.993c0.909-0.725,1.733-1.549,2.458-2.458l-1.993-4.193c0.347-0.647,0.633-1.334,0.851-2.049L31.229,17.736zM16,20.871c-2.69,0-4.872-2.182-4.872-4.871c0-2.69,2.182-4.872,4.872-4.872c2.689,0,4.871,2.182,4.871,4.872C20.871,18.689,18.689,20.871,16,20.871z"></path><title>Link options.</title></g></g></g></g><g id="j_2078"   ><path  stroke="#707070" id="v-30503" stroke-width="2" stroke-dasharray="30 30" fill="none" d="M 1047 965 1215 653" style="opacity: 1;"></path><path  fill="black" stroke="black" transform="translate(1047,965) scale(1,1) rotate(-61.79251098632812)"></path><path  fill="#707070" stroke="#707070" id="v-30505" d="M 20 0 L 0 10 L 20 20 z" transform="translate(1232.8123917556193,639.726681722839) scale(1,1) rotate(-241.7925109863281)" style="opacity: 1;"></path><path  id="v-30504" fill="none" d="M 1047 965 1215 653"></path><title ></title><g ><g  id="v-30490" label-idx="0" cursor="move" transform="translate(1131, 809)" style="opacity: 1;"><rect id="v-30492" fill="#ffffff" rx="3" ry="3" stroke="#ffffff" stroke-width="20px" pointer-events="none" width="156.03125" height="60.46875" transform="matrix(1,0,0,1,-78,-30.3)"></rect><text id="v-30491" font-size="24px" y="0.8em" xml:space="preserve" text-anchor="middle" pointer-events="none" fill="#707070" font-family="Open Sans" font-weight="normal" transform="matrix(1,0,0,1,0,-24.6)"><tspan id="v-30493"  dy="0em" x="0">Conducts case</tspan><tspan id="v-30494"  dy="1.2em" x="0">studies</tspan></text></g><g  id="v-30495" label-idx="1" cursor="move" transform="translate(1131, 852.2)" style="opacity: 1;"><rect id="v-30497" fill="#ffffff" rx="3" ry="3" pointer-events="none" width="130.9375" height="25.34375" transform="matrix(1,0,0,1,-65.5,-12.7)"></rect><text id="v-30496" font-size="19px" y="0.8em" xml:space="preserve" text-anchor="middle" pointer-events="none" fill="#707070" font-family="Open Sans" font-weight="normal" transform="matrix(1,0,0,1,0,-8)"><tspan id="v-30498"  dy="0em" x="0">[SQL, Postgres]</tspan></text></g><g  id="v-30499" label-idx="2" cursor="move" transform="translate(1131, 876.2)" style="opacity: 1;"><rect id="v-30501" fill="#ffffff" rx="3" ry="3" pointer-events="none"  display="none" width="0" height="0" transform="matrix(1,0,0,1,0,0)"></rect><text id="v-30500" font-size="19px" y="0.8em" display="none" xml:space="preserve" text-anchor="middle" pointer-events="none" fill="#707070" font-family="Open Sans" font-weight="normal"  transform="matrix(1,0,0,1,0,0)"><tspan id="v-30502"  dy="0em" x="0" style="fill-opacity: 0; stroke-opacity: 0;">-</tspan></text></g></g><g  display="none"></g><g  id="v-30507" display="none"><g  id="v-30487"><path  end="source" d="M 26 0 L 0 13 L 26 26 z"></path></g><g  id="v-30488"><path  end="target" d="M 26 0 L 0 13 L 26 26 z"></path></g></g><g  id="v-30506" display="none"><g  id="v-30486" transform="translate(1065.9639892578125, 929.7811279296875) "><g  event="remove"><circle r="11"></circle><path transform="scale(.8) translate(-16, -16)" d="M24.778,21.419 19.276,15.917 24.777,10.415 21.949,7.585 16.447,13.087 10.945,7.585 8.117,10.415 13.618,15.917 8.116,21.419 10.946,24.248 16.447,18.746 21.948,24.248z"></path><title>Remove link.</title></g><g  event="link:options"><circle r="11" transform="translate(25)"></circle><path fill="white" transform="scale(.55) translate(29, -16)" d="M31.229,17.736c0.064-0.571,0.104-1.148,0.104-1.736s-0.04-1.166-0.104-1.737l-4.377-1.557c-0.218-0.716-0.504-1.401-0.851-2.05l1.993-4.192c-0.725-0.91-1.549-1.734-2.458-2.459l-4.193,1.994c-0.647-0.347-1.334-0.632-2.049-0.849l-1.558-4.378C17.165,0.708,16.588,0.667,16,0.667s-1.166,0.041-1.737,0.105L12.707,5.15c-0.716,0.217-1.401,0.502-2.05,0.849L6.464,4.005C5.554,4.73,4.73,5.554,4.005,6.464l1.994,4.192c-0.347,0.648-0.632,1.334-0.849,2.05l-4.378,1.557C0.708,14.834,0.667,15.412,0.667,16s0.041,1.165,0.105,1.736l4.378,1.558c0.217,0.715,0.502,1.401,0.849,2.049l-1.994,4.193c0.725,0.909,1.549,1.733,2.459,2.458l4.192-1.993c0.648,0.347,1.334,0.633,2.05,0.851l1.557,4.377c0.571,0.064,1.148,0.104,1.737,0.104c0.588,0,1.165-0.04,1.736-0.104l1.558-4.377c0.715-0.218,1.399-0.504,2.049-0.851l4.193,1.993c0.909-0.725,1.733-1.549,2.458-2.458l-1.993-4.193c0.347-0.647,0.633-1.334,0.851-2.049L31.229,17.736zM16,20.871c-2.69,0-4.872-2.182-4.872-4.871c0-2.69,2.182-4.872,4.872-4.872c2.689,0,4.871,2.182,4.871,4.872C20.871,18.689,18.689,20.871,16,20.871z"></path><title>Link options.</title></g></g></g></g><g id="j_2079"   ><path  stroke="#707070" id="v-30528" stroke-width="2" stroke-dasharray="30 30" fill="none" d="M 1527 965 1382 653" style="opacity: 1;"></path><path  fill="black" stroke="black" transform="translate(1527,965) scale(1,1) rotate(-114.87415313720703)"></path><path  fill="#707070" stroke="#707070" id="v-30530" d="M 20 0 L 0 10 L 20 20 z" transform="translate(1383.072373249649,630.7937228282698) scale(1,1) rotate(65.12585449218753)" style="opacity: 1;"></path><path  id="v-30529" fill="none" d="M 1527 965 1382 653"></path><title ></title><g ><g  id="v-30515" label-idx="0" cursor="move" transform="translate(1454.5, 809)" style="opacity: 1;"><rect id="v-30517" fill="#ffffff" rx="3" ry="3" stroke="#ffffff" stroke-width="20px" pointer-events="none" width="159.875" height="60.46875" transform="matrix(1,0,0,1,-79.9,-30.3)"></rect><text id="v-30516" font-size="24px" y="0.8em" xml:space="preserve" text-anchor="middle" pointer-events="none" fill="#707070" font-family="Open Sans" font-weight="normal" transform="matrix(1,0,0,1,0,-24.6)"><tspan id="v-30518"  dy="0em" x="0">Uses ERNIE for</tspan><tspan id="v-30519"  dy="1.2em" x="0">case studies</tspan></text></g><g  id="v-30520" label-idx="1" cursor="move" transform="translate(1454.5, 852.2)" style="opacity: 1;"><rect id="v-30522" fill="#ffffff" rx="3" ry="3" pointer-events="none" width="153.21875" height="25.34375" transform="matrix(1,0,0,1,-76.6,-12.7)"></rect><text id="v-30521" font-size="19px" y="0.8em" xml:space="preserve" text-anchor="middle" pointer-events="none" fill="#707070" font-family="Open Sans" font-weight="normal" transform="matrix(1,0,0,1,0,-8)"><tspan id="v-30523"  dy="0em" x="0">[Web Application]</tspan></text></g><g  id="v-30524" label-idx="2" cursor="move" transform="translate(1454.5, 876.2)" style="opacity: 1;"><rect id="v-30526" fill="#ffffff" rx="3" ry="3" pointer-events="none"  display="none" width="0" height="0" transform="matrix(1,0,0,1,0,0)"></rect><text id="v-30525" font-size="19px" y="0.8em" display="none" xml:space="preserve" text-anchor="middle" pointer-events="none" fill="#707070" font-family="Open Sans" font-weight="normal"  transform="matrix(1,0,0,1,0,0)"><tspan id="v-30527"  dy="0em" x="0" style="fill-opacity: 0; stroke-opacity: 0;">-</tspan></text></g></g><g  display="none"></g><g  id="v-30532" display="none"><g  id="v-30512"><path  end="source" d="M 26 0 L 0 13 L 26 26 z"></path></g><g  id="v-30513"><path  end="target" d="M 26 0 L 0 13 L 26 26 z"></path></g></g><g  id="v-30531" display="none"><g  id="v-30511" transform="translate(1510.141845703125, 928.7259521484375) "><g  event="remove"><circle r="11"></circle><path transform="scale(.8) translate(-16, -16)" d="M24.778,21.419 19.276,15.917 24.777,10.415 21.949,7.585 16.447,13.087 10.945,7.585 8.117,10.415 13.618,15.917 8.116,21.419 10.946,24.248 16.447,18.746 21.948,24.248z"></path><title>Remove link.</title></g><g  event="link:options"><circle r="11" transform="translate(25)"></circle><path fill="white" transform="scale(.55) translate(29, -16)" d="M31.229,17.736c0.064-0.571,0.104-1.148,0.104-1.736s-0.04-1.166-0.104-1.737l-4.377-1.557c-0.218-0.716-0.504-1.401-0.851-2.05l1.993-4.192c-0.725-0.91-1.549-1.734-2.458-2.459l-4.193,1.994c-0.647-0.347-1.334-0.632-2.049-0.849l-1.558-4.378C17.165,0.708,16.588,0.667,16,0.667s-1.166,0.041-1.737,0.105L12.707,5.15c-0.716,0.217-1.401,0.502-2.05,0.849L6.464,4.005C5.554,4.73,4.73,5.554,4.005,6.464l1.994,4.192c-0.347,0.648-0.632,1.334-0.849,2.05l-4.378,1.557C0.708,14.834,0.667,15.412,0.667,16s0.041,1.165,0.105,1.736l4.378,1.558c0.217,0.715,0.502,1.401,0.849,2.049l-1.994,4.193c0.725,0.909,1.549,1.733,2.459,2.458l4.192-1.993c0.648,0.347,1.334,0.633,2.05,0.851l1.557,4.377c0.571,0.064,1.148,0.104,1.737,0.104c0.588,0,1.165-0.04,1.736-0.104l1.558-4.377c0.715-0.218,1.399-0.504,2.049-0.851l4.193,1.993c0.909-0.725,1.733-1.549,2.458-2.458l-1.993-4.193c0.347-0.647,0.633-1.334,0.851-2.049L31.229,17.736zM16,20.871c-2.69,0-4.872-2.182-4.872-4.871c0-2.69,2.182-4.872,4.872-4.872c2.689,0,4.871,2.182,4.871,4.872C20.871,18.689,18.689,20.871,16,20.871z"></path><title>Link options.</title></g></g></g></g><g id="j_2080"    transform="translate(2460,20)"><g id="v-30534"><text  id="v-30535" font-size="413.3333333333333px" y="0.8em" xml:space="preserve" font-family="Open Sans" font-weight="bolder" text-anchor="end" dominant-baseline="baseline" pointer-events="none" stroke-width="2px" transform="matrix(1,0,0,1,0,0)" style="display: none !important; visibility: hidden !important" fill="#777777" stroke="#777777" opacity="0.01"><tspan id="v-30632"  dy="0em" x="0">Structurizr</tspan></text></g></g></g><defs id="v-4"></defs></svg>