<!DOCTYPE svg PUBLIC "-//W3C//DTD SVG 1.1//EN" "http://www.w3.org/Graphics/SVG/1.1/DTD/svg11.dtd">
<svg xmlns="http://www.w3.org/2000/svg" xmlns:xlink="http://www.w3.org/1999/xlink" version="1.1" id="v-2" width="2480" height="1748" style="width: 1286px; height: 906px;"><g id="v-3" class="viewport" transform="scale(0.5188787185354691,0.5188787185354691)"><g id="j_21" model-id="3127c46d-c6d9-47fb-be63-7e8d764ed279" class="element structurizr diagramMetadata joint-theme-default" transform="translate(40,1703)"><g id="v-338"><text class="structurizrDiagramMetadata structurizrMetadata" id="v-339" y="0.8em" display="null" xml:space="preserve" font-weight="normal" font-size="22px" text-anchor="start" fill="#777777" pointer-events="none" font-family="Open Sans"><tspan dy="0em" x="0" id="v-340" class="v-line">Last&#160;modified:&#160;Wednesday&#160;27&#160;December&#160;2017&#160;15:15&#160;UTC</tspan></text></g></g><g id="j_20" model-id="d4b2e04a-b403-4a4a-9148-c719d18805dd" class="element structurizr diagramDescription joint-theme-default" transform="translate(40,1674)"><g id="v-335"><text class="structurizrDiagramDescription structurizrMetadata" id="v-336" y="0.8em" display="null" xml:space="preserve" font-weight="normal" font-size="22px" text-anchor="start" fill="#777777" pointer-events="none" font-family="Open Sans"><tspan dy="0em" x="0" id="v-337" class="v-line">Dashed&#160;boundary&#160;=&#160;ERNIE&#160;project.</tspan></text></g></g><g id="j_19" model-id="38355516-15a8-4cf3-b5f8-22eb9fc425a4" class="element structurizr diagramTitle joint-theme-default" transform="translate(40,1628)"><g id="v-332"><text class="structurizrDiagramTitle structurizrMetadata" id="v-333" y="0.8em" display="null" xml:space="preserve" font-weight="bold" font-size="36px" text-anchor="start" fill="#000000" pointer-events="none" font-family="Open Sans"><tspan dy="0em" x="0" id="v-334" class="v-line">System&#160;Context&#160;diagram&#160;for&#160;ERNIE</tspan></text></g></g><g id="j_4" model-id="e9154db1-3e91-41fe-a382-bb75d2041ac5" class="element structurizr boundary joint-theme-default" transform="translate(515,644)"><g id="v-53"><rect class="structurizrBoundary" id="v-54" width="1300" height="961" rx="0" ry="0" fill="#ffffff" stroke="#444444" stroke-width="2" stroke-dasharray="20,20" pointer-events="none"></rect></g></g><g id="j_1" model-id="d5c6f168-bac4-4284-a74c-b252c2ff94b2" class="element structurizr box joint-theme-default" transform="translate(15,20)"><g id="v-11"><rect class="structurizrBox structurizrHighlightableElement" id="v-12" rx="1" ry="1" stroke="#0f5eaa" stroke-width="2" pointer-events="visiblePainted" fill="#1168bd" width="450" height="300"></rect><text class="structurizrName" id="v-13" y="0.8em" display="null" xml:space="preserve" font-weight="bold" text-anchor="middle" pointer-events="visible" font-family="Open Sans" fill="#ffffff" font-size="34" transform="translate(225,60)"><tspan dy="0em" x="0" id="v-14" class="v-line">Clinical&#160;Guidelines&#160;(CG)</tspan></text><text class="structurizrMetaData" id="v-15" y="0.8em" display="null" xml:space="preserve" text-anchor="middle" font-family="Open Sans" fill="#ffffff" font-size="19" transform="translate(225,100)"><tspan dy="0em" x="0" id="v-16" class="v-line">[Software&#160;System]</tspan></text><text class="structurizrDescription" id="v-17" y="0.8em" display="null" xml:space="preserve" text-anchor="middle" font-family="Open Sans" fill="#ffffff" font-size="24" transform="translate(225,150)"><tspan dy="0em" x="0" id="v-18" class="v-line">AHRQ's&#160;National&#160;Guideline</tspan><tspan dy="1.2em" x="0" id="v-19" class="v-line">Clearinghouse&#160;data&#160;mapped&#160;to</tspan><tspan dy="1.2em" x="0" id="v-20" class="v-line">PubMed,&#160;WoS&#160;and&#160;NIH&#160;projects</tspan></text><text class="structurizrNavigation" id="v-21" font-weight="bold" text-anchor="middle" display="none" font-family="Open Sans" fill="#4d8ece" font-size="44" transform="translate(427.5,255)"></text></g></g><g id="j_2" model-id="6af4b467-639a-429e-babe-3bca087c7130" class="element structurizr box joint-theme-default" transform="translate(10,350)"><g id="v-28"><rect class="structurizrBox structurizrHighlightableElement" id="v-29" rx="1" ry="1" stroke="#0f5eaa" stroke-width="2" pointer-events="visiblePainted" fill="#1168bd" width="450" height="300"></rect><text class="structurizrName" id="v-30" y="0.8em" display="null" xml:space="preserve" font-weight="bold" text-anchor="middle" pointer-events="visible" font-family="Open Sans" fill="#ffffff" font-size="34" transform="translate(225,90)"><tspan dy="0em" x="0" id="v-31" class="v-line">Clinical&#160;Trials&#160;(CT)</tspan></text><text class="structurizrMetaData" id="v-32" y="0.8em" display="null" xml:space="preserve" text-anchor="middle" font-family="Open Sans" fill="#ffffff" font-size="19" transform="translate(225,130)"><tspan dy="0em" x="0" id="v-33" class="v-line">[Software&#160;System]</tspan></text><text class="structurizrDescription" id="v-34" y="0.8em" display="null" xml:space="preserve" text-anchor="middle" font-family="Open Sans" fill="#ffffff" font-size="24" transform="translate(225,180)"><tspan dy="0em" x="0" id="v-35" class="v-line">clinicaltrials.gov&#160;data</tspan></text><text class="structurizrNavigation" id="v-36" font-weight="bold" text-anchor="middle" display="none" font-family="Open Sans" fill="#4d8ece" font-size="44" transform="translate(427.5,255)"></text></g></g><g id="j_3" model-id="4da3ae3f-0ba2-46da-b60f-947f65636bb8" class="element structurizr box joint-theme-default" transform="translate(1015,664)"><g id="v-43"><rect class="structurizrBox structurizrHighlightableElement" id="v-44" rx="1" ry="1" stroke="#0f5eaa" stroke-width="2" pointer-events="visiblePainted" fill="#1168bd" width="450" height="300"></rect><text class="structurizrName" id="v-45" y="0.8em" display="null" xml:space="preserve" font-weight="bold" text-anchor="middle" pointer-events="visible" font-family="Open Sans" fill="#ffffff" font-size="34" transform="translate(225,75)"><tspan dy="0em" x="0" id="v-46" class="v-line">ERNIE</tspan></text><text class="structurizrMetaData" id="v-47" y="0.8em" display="null" xml:space="preserve" text-anchor="middle" font-family="Open Sans" fill="#ffffff" font-size="19" transform="translate(225,115.00000000000001)"><tspan dy="0em" x="0" id="v-48" class="v-line">[Software&#160;System]</tspan></text><text class="structurizrDescription" id="v-49" y="0.8em" display="null" xml:space="preserve" text-anchor="middle" font-family="Open Sans" fill="#ffffff" font-size="24" transform="translate(225,165)"><tspan dy="0em" x="0" id="v-50" class="v-line">Enhanced&#160;Research&#160;Network</tspan><tspan dy="1.2em" x="0" id="v-51" class="v-line">Informatics&#160;Environment</tspan></text><text class="structurizrNavigation" id="v-52" font-weight="bold" text-anchor="middle" display="none" font-family="Open Sans" fill="#4d8ece" font-size="44" transform="translate(427.5,255)"></text></g></g><g id="j_5" model-id="8ce08468-fd6f-40ef-b63c-29f82b14e392" class="element structurizr person joint-theme-default" transform="translate(535,1185)"><g id="v-61"><rect class="structurizrPersonBody structurizrHighlightableElement" x="0" y="160" width="400" height="240" rx="80" id="v-63" stroke="#073b6f" stroke-width="2" pointer-events="visiblePainted" fill="#08427b"></rect><circle class="structurizrPersonHead structurizrHighlightableElement" cx="200" cy="88.88888888888889" r="88.88888888888889" id="v-62" stroke="#073b6f" stroke-width="2" pointer-events="visiblePainted" fill="#08427b"></circle><line class="structurizrPersonRightArm" x1="80" y1="266.6666666666667" x2="80" y2="400" style="stroke-width:2px" id="v-71" stroke="#073b6f"></line><line class="structurizrPersonLeftArm" x1="320" y1="266.6666666666667" x2="320" y2="400" style="stroke-width:2px" id="v-72" stroke="#073b6f"></line><text class="structurizrName" id="v-64" y="0.8em" display="null" xml:space="preserve" font-weight="bold" text-anchor="middle" pointer-events="visible" font-family="Open Sans" fill="#ffffff" font-size="34px" transform="translate(200,235)"><tspan dy="0em" x="0" id="v-65" class="v-line">ERNIE&#160;staff</tspan></text><text class="structurizrMetaData" id="v-66" y="0.8em" display="null" xml:space="preserve" text-anchor="middle" font-family="Open Sans" fill="#ffffff" font-size="19px" transform="translate(200,275)"><tspan dy="0em" x="0" id="v-67" class="v-line">[Person]</tspan></text><text class="structurizrDescription" id="v-68" y="0.8em" display="none" xml:space="preserve" text-anchor="middle" font-family="Open Sans" fill="#ffffff" font-size="24px" transform="translate(200,325)"><tspan dy="0em" x="0" id="v-69" class="v-line v-empty-line" style="opacity: 0;">-</tspan></text><text class="structurizrNavigation" id="v-70" font-weight="bold" text-anchor="middle" display="none" font-family="Open Sans" fill="#46719c" font-size="44" transform="translate(340,361.6)"></text></g></g><g id="j_6" model-id="9d6a128f-f2cc-4cdf-a9b5-f03c1ab53ff1" class="element structurizr person joint-theme-default" transform="translate(1395,1185)"><g id="v-79"><rect class="structurizrPersonBody structurizrHighlightableElement" x="0" y="160" width="400" height="240" rx="80" id="v-81" stroke="#073b6f" stroke-width="2" pointer-events="visiblePainted" fill="#08427b"></rect><circle class="structurizrPersonHead structurizrHighlightableElement" cx="200" cy="88.88888888888889" r="88.88888888888889" id="v-80" stroke="#073b6f" stroke-width="2" pointer-events="visiblePainted" fill="#08427b"></circle><line class="structurizrPersonRightArm" x1="80" y1="266.6666666666667" x2="80" y2="400" style="stroke-width:2px" id="v-89" stroke="#073b6f"></line><line class="structurizrPersonLeftArm" x1="320" y1="266.6666666666667" x2="320" y2="400" style="stroke-width:2px" id="v-90" stroke="#073b6f"></line><text class="structurizrName" id="v-82" y="0.8em" display="null" xml:space="preserve" font-weight="bold" text-anchor="middle" pointer-events="visible" font-family="Open Sans" fill="#ffffff" font-size="34px" transform="translate(200,235)"><tspan dy="0em" x="0" id="v-83" class="v-line">External&#160;Collaborator</tspan></text><text class="structurizrMetaData" id="v-84" y="0.8em" display="null" xml:space="preserve" text-anchor="middle" font-family="Open Sans" fill="#ffffff" font-size="19px" transform="translate(200,275)"><tspan dy="0em" x="0" id="v-85" class="v-line">[Person]</tspan></text><text class="structurizrDescription" id="v-86" y="0.8em" display="none" xml:space="preserve" text-anchor="middle" font-family="Open Sans" fill="#ffffff" font-size="24px" transform="translate(200,325)"><tspan dy="0em" x="0" id="v-87" class="v-line v-empty-line" style="opacity: 0;">-</tspan></text><text class="structurizrNavigation" id="v-88" font-weight="bold" text-anchor="middle" display="none" font-family="Open Sans" fill="#46719c" font-size="44" transform="translate(340,361.6)"></text></g></g><g id="j_7" model-id="8d1f5148-b6ee-4469-bfe7-543ddff90c27" class="element structurizr box joint-theme-default" transform="translate(1985,1055)"><g id="v-97"><rect class="structurizrBox structurizrHighlightableElement" id="v-98" rx="1" ry="1" stroke="#0f5eaa" stroke-width="2" pointer-events="visiblePainted" fill="#1168bd" width="450" height="300"></rect><text class="structurizrName" id="v-99" y="0.8em" display="null" xml:space="preserve" font-weight="bold" text-anchor="middle" pointer-events="visible" font-family="Open Sans" fill="#ffffff" font-size="34" transform="translate(225,75)"><tspan dy="0em" x="0" id="v-100" class="v-line">NIH&#160;Projects</tspan></text><text class="structurizrMetaData" id="v-101" y="0.8em" display="null" xml:space="preserve" text-anchor="middle" font-family="Open Sans" fill="#ffffff" font-size="19" transform="translate(225,115.00000000000001)"><tspan dy="0em" x="0" id="v-102" class="v-line">[Software&#160;System]</tspan></text><text class="structurizrDescription" id="v-103" y="0.8em" display="null" xml:space="preserve" text-anchor="middle" font-family="Open Sans" fill="#ffffff" font-size="24" transform="translate(225,165)"><tspan dy="0em" x="0" id="v-104" class="v-line">Data&#160;on&#160;funded&#160;NIH&#160;grants&#160;and&#160;other</tspan><tspan dy="1.2em" x="0" id="v-105" class="v-line">projects&#160;from&#160;NIH&#160;ExPORTER</tspan></text><text class="structurizrNavigation" id="v-106" font-weight="bold" text-anchor="middle" display="none" font-family="Open Sans" fill="#4d8ece" font-size="44" transform="translate(427.5,255)"></text></g></g><g id="j_8" model-id="4a98ca61-6666-48bf-a52a-ed23cd6b765e" class="element structurizr box joint-theme-default" transform="translate(1985,35)"><g id="v-113"><rect class="structurizrBox structurizrHighlightableElement" id="v-114" rx="1" ry="1" stroke="#0f5eaa" stroke-width="2" pointer-events="visiblePainted" fill="#1168bd" width="450" height="300"></rect><text class="structurizrName" id="v-115" y="0.8em" display="null" xml:space="preserve" font-weight="bold" text-anchor="middle" pointer-events="visible" font-family="Open Sans" fill="#ffffff" font-size="34" transform="translate(225,54.99999999999999)"><tspan dy="0em" x="0" id="v-116" class="v-line">Publications&#160;and&#160;Citations</tspan><tspan dy="1.2em" x="0" id="v-117" class="v-line">(WoS)</tspan></text><text class="structurizrMetaData" id="v-118" y="0.8em" display="null" xml:space="preserve" text-anchor="middle" font-family="Open Sans" fill="#ffffff" font-size="19" transform="translate(225,135)"><tspan dy="0em" x="0" id="v-119" class="v-line">[Software&#160;System]</tspan></text><text class="structurizrDescription" id="v-120" y="0.8em" display="null" xml:space="preserve" text-anchor="middle" font-family="Open Sans" fill="#ffffff" font-size="24" transform="translate(225,185)"><tspan dy="0em" x="0" id="v-121" class="v-line">Web&#160;of&#160;Science&#160;Core&#160;Collection&#160;data</tspan><tspan dy="1.2em" x="0" id="v-122" class="v-line">leased&#160;from&#160;Clarivate&#160;Analytics</tspan></text><text class="structurizrNavigation" id="v-123" font-weight="bold" text-anchor="middle" display="none" font-family="Open Sans" fill="#4d8ece" font-size="44" transform="translate(427.5,255)"></text></g></g><g id="j_9" model-id="00ca5cec-0d6d-4b31-a112-d79b38260acb" class="element structurizr box joint-theme-default" transform="translate(15,1030)"><g id="v-130"><rect class="structurizrBox structurizrHighlightableElement" id="v-131" rx="1" ry="1" stroke="#0f5eaa" stroke-width="2" pointer-events="visiblePainted" fill="#1168bd" width="450" height="300"></rect><text class="structurizrName" id="v-132" y="0.8em" display="null" xml:space="preserve" font-weight="bold" text-anchor="middle" pointer-events="visible" font-family="Open Sans" fill="#ffffff" font-size="34" transform="translate(225,70)"><tspan dy="0em" x="0" id="v-133" class="v-line">US&#160;Drugs&#160;and&#160;Biological</tspan><tspan dy="1.2em" x="0" id="v-134" class="v-line">Products&#160;(FDA)</tspan></text><text class="structurizrMetaData" id="v-135" y="0.8em" display="null" xml:space="preserve" text-anchor="middle" font-family="Open Sans" fill="#ffffff" font-size="19" transform="translate(225,150)"><tspan dy="0em" x="0" id="v-136" class="v-line">[Software&#160;System]</tspan></text><text class="structurizrDescription" id="v-137" y="0.8em" display="null" xml:space="preserve" text-anchor="middle" font-family="Open Sans" fill="#ffffff" font-size="24" transform="translate(225,200)"><tspan dy="0em" x="0" id="v-138" class="v-line">FDA&#160;Orange&#160;and&#160;Purple&#160;Books</tspan></text><text class="structurizrNavigation" id="v-139" font-weight="bold" text-anchor="middle" display="none" font-family="Open Sans" fill="#4d8ece" font-size="44" transform="translate(427.5,255)"></text></g></g><g id="j_10" model-id="b00433bc-0fab-4698-9707-a514189bd806" class="element structurizr box joint-theme-default" transform="translate(10,685)"><g id="v-146"><rect class="structurizrBox structurizrHighlightableElement" id="v-147" rx="1" ry="1" stroke="#0f5eaa" stroke-width="2" pointer-events="visiblePainted" fill="#1168bd" width="450" height="300"></rect><text class="structurizrName" id="v-148" y="0.8em" display="null" xml:space="preserve" font-weight="bold" text-anchor="middle" pointer-events="visible" font-family="Open Sans" fill="#ffffff" font-size="34" transform="translate(225,75)"><tspan dy="0em" x="0" id="v-149" class="v-line">US&#160;Patents&#160;(Derwent)</tspan></text><text class="structurizrMetaData" id="v-150" y="0.8em" display="null" xml:space="preserve" text-anchor="middle" font-family="Open Sans" fill="#ffffff" font-size="19" transform="translate(225,115.00000000000001)"><tspan dy="0em" x="0" id="v-151" class="v-line">[Software&#160;System]</tspan></text><text class="structurizrDescription" id="v-152" y="0.8em" display="null" xml:space="preserve" text-anchor="middle" font-family="Open Sans" fill="#ffffff" font-size="24" transform="translate(225,165)"><tspan dy="0em" x="0" id="v-153" class="v-line">Derwent&#160;data&#160;leased&#160;from&#160;Clarivate</tspan><tspan dy="1.2em" x="0" id="v-154" class="v-line">Analytics</tspan></text><text class="structurizrNavigation" id="v-155" font-weight="bold" text-anchor="middle" display="none" font-family="Open Sans" fill="#4d8ece" font-size="44" transform="translate(427.5,255)"></text></g></g><g id="j_11" model-id="0ae52d5a-449c-4c64-8f5a-d603c52d0cec" class="structurizr relationship link joint-theme-default"><path class="connection" stroke="#707070" id="v-158" stroke-width="2" stroke-dasharray="30 30" fill="none" d="M 1015 744 479 576"></path><path class="marker-source" fill="black" stroke="black" id="v-159" transform="translate(1015,744) scale(1,1) rotate(-162.5930938720703)"></path><path class="marker-target" fill="#707070" stroke="#707070" id="v-160" d="M 20 0 L 0 10 L 20 20 z" transform="translate(462.9915718838212,560.4579745446538) scale(1,1) rotate(17.40692138671872)"></path><path class="connection-wrap" id="v-161" fill="none" d="M 1015 744 479 576"></path><title class="tooltip" id="v-162"></title><g class="labels" id="v-163"><g class="label" id="v-171" label-idx="0" cursor="move" transform="translate(747, 660)"><rect fill="#ffffff" rx="3" ry="3" stroke="#ffffff" stroke-width="20px" pointer-events="none" x="-24.015625" y="-16.0703125" width="48.03125" height="27.515625"></rect><text text-anchor="middle" font-size="24px" fill="#707070" font-family="Open Sans" font-weight="bold" pointer-events="none" id="v-172" y="0.8em" display="null" xml:space="preserve" transform="translate(0,-13.7578125)"><tspan dy="0em" x="0" id="v-173" class="v-line">ETL</tspan></text></g><g class="label" id="v-174" label-idx="1" cursor="move" transform="translate(747, 688.8)"><rect fill="#ffffff" rx="3" ry="3" pointer-events="none" x="-204.265625" y="-13.0703125" width="408.53125" height="22.015625"></rect><text text-anchor="middle" font-size="19px" fill="#707070" font-family="Open Sans" font-weight="normal" pointer-events="none" id="v-175" y="0.8em" display="null" xml:space="preserve" transform="translate(0,-11.0078125)"><tspan dy="0em" x="0" id="v-176" class="v-line">[Jenkins,&#160;Bash,&#160;HTTP,&#160;XML,&#160;SQL,&#160;Postgres,&#160;Python]</tspan></text></g></g><g class="marker-vertices" id="v-164"></g><g class="marker-arrowheads" id="v-165" display="none"><g class="marker-arrowhead-group marker-arrowhead-group-source" id="v-168"><path class="marker-arrowhead" end="source" d="M 26 0 L 0 13 L 26 26 z"></path></g><g class="marker-arrowhead-group marker-arrowhead-group-target" id="v-169"><path class="marker-arrowhead" end="target" d="M 26 0 L 0 13 L 26 26 z"></path></g></g><g class="link-tools" id="v-166" display="none"><g class="link-tool" id="v-167" transform="translate(976.8309326171875, 732.0365600585938) "><g class="tool-remove" event="remove"><circle r="11"></circle><path transform="scale(.8) translate(-16, -16)" d="M24.778,21.419 19.276,15.917 24.777,10.415 21.949,7.585 16.447,13.087 10.945,7.585 8.117,10.415 13.618,15.917 8.116,21.419 10.946,24.248 16.447,18.746 21.948,24.248z"></path><title>Remove link.</title></g><g class="tool-options" event="link:options"><circle r="11" transform="translate(25)"></circle><path fill="white" transform="scale(.55) translate(29, -16)" d="M31.229,17.736c0.064-0.571,0.104-1.148,0.104-1.736s-0.04-1.166-0.104-1.737l-4.377-1.557c-0.218-0.716-0.504-1.401-0.851-2.05l1.993-4.192c-0.725-0.91-1.549-1.734-2.458-2.459l-4.193,1.994c-0.647-0.347-1.334-0.632-2.049-0.849l-1.558-4.378C17.165,0.708,16.588,0.667,16,0.667s-1.166,0.041-1.737,0.105L12.707,5.15c-0.716,0.217-1.401,0.502-2.05,0.849L6.464,4.005C5.554,4.73,4.73,5.554,4.005,6.464l1.994,4.192c-0.347,0.648-0.632,1.334-0.849,2.05l-4.378,1.557C0.708,14.834,0.667,15.412,0.667,16s0.041,1.165,0.105,1.736l4.378,1.558c0.217,0.715,0.502,1.401,0.849,2.049l-1.994,4.193c0.725,0.909,1.549,1.733,2.459,2.458l4.192-1.993c0.648,0.347,1.334,0.633,2.05,0.851l1.557,4.377c0.571,0.064,1.148,0.104,1.737,0.104c0.588,0,1.165-0.04,1.736-0.104l1.558-4.377c0.715-0.218,1.399-0.504,2.049-0.851l4.193,1.993c0.909-0.725,1.733-1.549,2.458-2.458l-1.993-4.193c0.347-0.647,0.633-1.334,0.851-2.049L31.229,17.736zM16,20.871c-2.69,0-4.872-2.182-4.872-4.871c0-2.69,2.182-4.872,4.872-4.872c2.689,0,4.871,2.182,4.871,4.872C20.871,18.689,18.689,20.871,16,20.871z"></path><title>Link options.</title></g></g></g></g><g id="j_12" model-id="e14004ef-dc96-4603-a1f7-dc188cf4b1ca" class="structurizr relationship link joint-theme-default"><path class="connection" stroke="#707070" id="v-179" stroke-width="2" stroke-dasharray="30 30" fill="none" d="M 1015 896 484 1091"></path><path class="marker-source" fill="black" stroke="black" id="v-180" transform="translate(1015,896) scale(1,1) rotate(-200.16690063476562)"></path><path class="marker-target" fill="#707070" stroke="#707070" id="v-181" d="M 20 0 L 0 10 L 20 20 z" transform="translate(461.5524485487139,1088.6131278979844) scale(1,1) rotate(-20.166906356811523)"></path><path class="connection-wrap" id="v-182" fill="none" d="M 1015 896 484 1091"></path><title class="tooltip" id="v-183"></title><g class="labels" id="v-184"><g class="label" id="v-192" label-idx="0" cursor="move" transform="translate(749.5, 993.5)"><rect fill="#ffffff" rx="3" ry="3" stroke="#ffffff" stroke-width="20px" pointer-events="none" x="-24.015625" y="-16.0703125" width="48.03125" height="27.515625"></rect><text text-anchor="middle" font-size="24px" fill="#707070" font-family="Open Sans" font-weight="bold" pointer-events="none" id="v-193" y="0.8em" display="null" xml:space="preserve" transform="translate(0,-13.7578125)"><tspan dy="0em" x="0" id="v-194" class="v-line">ETL</tspan></text></g><g class="label" id="v-195" label-idx="1" cursor="move" transform="translate(749.5, 1022.3)"><rect fill="#ffffff" rx="3" ry="3" pointer-events="none" x="-169.953125" y="-13.0703125" width="339.90625" height="22.015625"></rect><text text-anchor="middle" font-size="19px" fill="#707070" font-family="Open Sans" font-weight="normal" pointer-events="none" id="v-196" y="0.8em" display="null" xml:space="preserve" transform="translate(0,-11.0078125)"><tspan dy="0em" x="0" id="v-197" class="v-line">[Jenkins,&#160;Bash,&#160;HTTP,&#160;CSV,&#160;SQL,&#160;Postgres]</tspan></text></g></g><g class="marker-vertices" id="v-185"></g><g class="marker-arrowheads" id="v-186" display="none"><g class="marker-arrowhead-group marker-arrowhead-group-source" id="v-189"><path class="marker-arrowhead" end="source" d="M 26 0 L 0 13 L 26 26 z"></path></g><g class="marker-arrowhead-group marker-arrowhead-group-target" id="v-190"><path class="marker-arrowhead" end="target" d="M 26 0 L 0 13 L 26 26 z"></path></g></g><g class="link-tools" id="v-187" display="none"><g class="link-tool" id="v-188" transform="translate(977.4517822265625, 909.7889404296875) "><g class="tool-remove" event="remove"><circle r="11"></circle><path transform="scale(.8) translate(-16, -16)" d="M24.778,21.419 19.276,15.917 24.777,10.415 21.949,7.585 16.447,13.087 10.945,7.585 8.117,10.415 13.618,15.917 8.116,21.419 10.946,24.248 16.447,18.746 21.948,24.248z"></path><title>Remove link.</title></g><g class="tool-options" event="link:options"><circle r="11" transform="translate(25)"></circle><path fill="white" transform="scale(.55) translate(29, -16)" d="M31.229,17.736c0.064-0.571,0.104-1.148,0.104-1.736s-0.04-1.166-0.104-1.737l-4.377-1.557c-0.218-0.716-0.504-1.401-0.851-2.05l1.993-4.192c-0.725-0.91-1.549-1.734-2.458-2.459l-4.193,1.994c-0.647-0.347-1.334-0.632-2.049-0.849l-1.558-4.378C17.165,0.708,16.588,0.667,16,0.667s-1.166,0.041-1.737,0.105L12.707,5.15c-0.716,0.217-1.401,0.502-2.05,0.849L6.464,4.005C5.554,4.73,4.73,5.554,4.005,6.464l1.994,4.192c-0.347,0.648-0.632,1.334-0.849,2.05l-4.378,1.557C0.708,14.834,0.667,15.412,0.667,16s0.041,1.165,0.105,1.736l4.378,1.558c0.217,0.715,0.502,1.401,0.849,2.049l-1.994,4.193c0.725,0.909,1.549,1.733,2.459,2.458l4.192-1.993c0.648,0.347,1.334,0.633,2.05,0.851l1.557,4.377c0.571,0.064,1.148,0.104,1.737,0.104c0.588,0,1.165-0.04,1.736-0.104l1.558-4.377c0.715-0.218,1.399-0.504,2.049-0.851l4.193,1.993c0.909-0.725,1.733-1.549,2.458-2.458l-1.993-4.193c0.347-0.647,0.633-1.334,0.851-2.049L31.229,17.736zM16,20.871c-2.69,0-4.872-2.182-4.872-4.871c0-2.69,2.182-4.872,4.872-4.872c2.689,0,4.871,2.182,4.871,4.872C20.871,18.689,18.689,20.871,16,20.871z"></path><title>Link options.</title></g></g></g></g><g id="j_13" model-id="3dc33297-c864-4b3c-96d9-eca3c365d1cf" class="structurizr relationship link joint-theme-default"><path class="connection" stroke="#707070" id="v-200" stroke-width="2" stroke-dasharray="30 30" fill="none" d="M 1465 905 1966 1107"></path><path class="marker-source" fill="black" stroke="black" id="v-201" transform="translate(1465,905) scale(1,1) rotate(21.89633178710936)"></path><path class="marker-target" fill="#707070" stroke="#707070" id="v-202" d="M 20 0 L 0 10 L 20 20 z" transform="translate(1981.270753067406,1123.2786370639462) scale(1,1) rotate(-158.10366821289062)"></path><path class="connection-wrap" id="v-203" fill="none" d="M 1465 905 1966 1107"></path><title class="tooltip" id="v-204"></title><g class="labels" id="v-205"><g class="label" id="v-213" label-idx="0" cursor="move" transform="translate(1715.5, 1006)"><rect fill="#ffffff" rx="3" ry="3" stroke="#ffffff" stroke-width="20px" pointer-events="none" x="-24.015625" y="-16.0703125" width="48.03125" height="27.515625"></rect><text text-anchor="middle" font-size="24px" fill="#707070" font-family="Open Sans" font-weight="bold" pointer-events="none" id="v-214" y="0.8em" display="null" xml:space="preserve" transform="translate(0,-13.7578125)"><tspan dy="0em" x="0" id="v-215" class="v-line">ETL</tspan></text></g><g class="label" id="v-216" label-idx="1" cursor="move" transform="translate(1715.5, 1034.8)"><rect fill="#ffffff" rx="3" ry="3" pointer-events="none" x="-201.625" y="-13.0703125" width="403.25" height="22.015625"></rect><text text-anchor="middle" font-size="19px" fill="#707070" font-family="Open Sans" font-weight="normal" pointer-events="none" id="v-217" y="0.8em" display="null" xml:space="preserve" transform="translate(0,-11.0078125)"><tspan dy="0em" x="0" id="v-218" class="v-line">[Jenkins,&#160;Bash,&#160;HTTP,&#160;CSV,&#160;SQL,&#160;Postgres,&#160;Python]</tspan></text></g></g><g class="marker-vertices" id="v-206"></g><g class="marker-arrowheads" id="v-207" display="none"><g class="marker-arrowhead-group marker-arrowhead-group-source" id="v-210"><path class="marker-arrowhead" end="source" d="M 26 0 L 0 13 L 26 26 z"></path></g><g class="marker-arrowhead-group marker-arrowhead-group-target" id="v-211"><path class="marker-arrowhead" end="target" d="M 26 0 L 0 13 L 26 26 z"></path></g></g><g class="link-tools" id="v-208" display="none"><g class="link-tool" id="v-209" transform="translate(1502.09814453125, 919.9577026367188) "><g class="tool-remove" event="remove"><circle r="11"></circle><path transform="scale(.8) translate(-16, -16)" d="M24.778,21.419 19.276,15.917 24.777,10.415 21.949,7.585 16.447,13.087 10.945,7.585 8.117,10.415 13.618,15.917 8.116,21.419 10.946,24.248 16.447,18.746 21.948,24.248z"></path><title>Remove link.</title></g><g class="tool-options" event="link:options"><circle r="11" transform="translate(25)"></circle><path fill="white" transform="scale(.55) translate(29, -16)" d="M31.229,17.736c0.064-0.571,0.104-1.148,0.104-1.736s-0.04-1.166-0.104-1.737l-4.377-1.557c-0.218-0.716-0.504-1.401-0.851-2.05l1.993-4.192c-0.725-0.91-1.549-1.734-2.458-2.459l-4.193,1.994c-0.647-0.347-1.334-0.632-2.049-0.849l-1.558-4.378C17.165,0.708,16.588,0.667,16,0.667s-1.166,0.041-1.737,0.105L12.707,5.15c-0.716,0.217-1.401,0.502-2.05,0.849L6.464,4.005C5.554,4.73,4.73,5.554,4.005,6.464l1.994,4.192c-0.347,0.648-0.632,1.334-0.849,2.05l-4.378,1.557C0.708,14.834,0.667,15.412,0.667,16s0.041,1.165,0.105,1.736l4.378,1.558c0.217,0.715,0.502,1.401,0.849,2.049l-1.994,4.193c0.725,0.909,1.549,1.733,2.459,2.458l4.192-1.993c0.648,0.347,1.334,0.633,2.05,0.851l1.557,4.377c0.571,0.064,1.148,0.104,1.737,0.104c0.588,0,1.165-0.04,1.736-0.104l1.558-4.377c0.715-0.218,1.399-0.504,2.049-0.851l4.193,1.993c0.909-0.725,1.733-1.549,2.458-2.458l-1.993-4.193c0.347-0.647,0.633-1.334,0.851-2.049L31.229,17.736zM16,20.871c-2.69,0-4.872-2.182-4.872-4.871c0-2.69,2.182-4.872,4.872-4.872c2.689,0,4.871,2.182,4.871,4.872C20.871,18.689,18.689,20.871,16,20.871z"></path><title>Link options.</title></g></g></g></g><g id="j_14" model-id="0104cf9a-fa42-4d1d-8482-ee9afc0f4ebf" class="structurizr relationship link joint-theme-default"><path class="connection" stroke="#707070" id="v-221" stroke-width="2" stroke-dasharray="30 30" fill="none" d="M 1015 819 480 830"></path><path class="marker-source" fill="black" stroke="black" id="v-222" transform="translate(1015,819) scale(1,1) rotate(-181.13543701171875)"></path><path class="marker-target" fill="#707070" stroke="#707070" id="v-223" d="M 20 0 L 0 10 L 20 20 z" transform="translate(459.80185114779545,820.0019416702353) scale(1,1) rotate(-1.1354433298110962)"></path><path class="connection-wrap" id="v-224" fill="none" d="M 1015 819 480 830"></path><title class="tooltip" id="v-225"></title><g class="labels" id="v-226"><g class="label" id="v-234" label-idx="0" cursor="move" transform="translate(747.5, 824.5)"><rect fill="#ffffff" rx="3" ry="3" stroke="#ffffff" stroke-width="20px" pointer-events="none" x="-24.015625" y="-16.0703125" width="48.03125" height="27.515625"></rect><text text-anchor="middle" font-size="24px" fill="#707070" font-family="Open Sans" font-weight="bold" pointer-events="none" id="v-235" y="0.8em" display="null" xml:space="preserve" transform="translate(0,-13.7578125)"><tspan dy="0em" x="0" id="v-236" class="v-line">ETL</tspan></text></g><g class="label" id="v-237" label-idx="1" cursor="move" transform="translate(747.5, 853.3)"><rect fill="#ffffff" rx="3" ry="3" pointer-events="none" x="-218.515625" y="-13.0703125" width="437.03125" height="22.015625"></rect><text text-anchor="middle" font-size="19px" fill="#707070" font-family="Open Sans" font-weight="normal" pointer-events="none" id="v-238" y="0.8em" display="null" xml:space="preserve" transform="translate(0,-11.0078125)"><tspan dy="0em" x="0" id="v-239" class="v-line">[Jenkins,&#160;Bash,&#160;FTP,&#160;XML,&#160;SQL,&#160;Postgres,&#160;Python,&#160;Java]</tspan></text></g></g><g class="marker-vertices" id="v-227"></g><g class="marker-arrowheads" id="v-228" display="none"><g class="marker-arrowhead-group marker-arrowhead-group-source" id="v-231"><path class="marker-arrowhead" end="source" d="M 26 0 L 0 13 L 26 26 z"></path></g><g class="marker-arrowhead-group marker-arrowhead-group-target" id="v-232"><path class="marker-arrowhead" end="target" d="M 26 0 L 0 13 L 26 26 z"></path></g></g><g class="link-tools" id="v-229" display="none"><g class="link-tool" id="v-230" transform="translate(975.0084838867188, 819.822265625) "><g class="tool-remove" event="remove"><circle r="11"></circle><path transform="scale(.8) translate(-16, -16)" d="M24.778,21.419 19.276,15.917 24.777,10.415 21.949,7.585 16.447,13.087 10.945,7.585 8.117,10.415 13.618,15.917 8.116,21.419 10.946,24.248 16.447,18.746 21.948,24.248z"></path><title>Remove link.</title></g><g class="tool-options" event="link:options"><circle r="11" transform="translate(25)"></circle><path fill="white" transform="scale(.55) translate(29, -16)" d="M31.229,17.736c0.064-0.571,0.104-1.148,0.104-1.736s-0.04-1.166-0.104-1.737l-4.377-1.557c-0.218-0.716-0.504-1.401-0.851-2.05l1.993-4.192c-0.725-0.91-1.549-1.734-2.458-2.459l-4.193,1.994c-0.647-0.347-1.334-0.632-2.049-0.849l-1.558-4.378C17.165,0.708,16.588,0.667,16,0.667s-1.166,0.041-1.737,0.105L12.707,5.15c-0.716,0.217-1.401,0.502-2.05,0.849L6.464,4.005C5.554,4.73,4.73,5.554,4.005,6.464l1.994,4.192c-0.347,0.648-0.632,1.334-0.849,2.05l-4.378,1.557C0.708,14.834,0.667,15.412,0.667,16s0.041,1.165,0.105,1.736l4.378,1.558c0.217,0.715,0.502,1.401,0.849,2.049l-1.994,4.193c0.725,0.909,1.549,1.733,2.459,2.458l4.192-1.993c0.648,0.347,1.334,0.633,2.05,0.851l1.557,4.377c0.571,0.064,1.148,0.104,1.737,0.104c0.588,0,1.165-0.04,1.736-0.104l1.558-4.377c0.715-0.218,1.399-0.504,2.049-0.851l4.193,1.993c0.909-0.725,1.733-1.549,2.458-2.458l-1.993-4.193c0.347-0.647,0.633-1.334,0.851-2.049L31.229,17.736zM16,20.871c-2.69,0-4.872-2.182-4.872-4.871c0-2.69,2.182-4.872,4.872-4.872c2.689,0,4.871,2.182,4.871,4.872C20.871,18.689,18.689,20.871,16,20.871z"></path><title>Link options.</title></g></g></g></g><g id="j_15" model-id="66d635ce-7897-4f89-a525-5c653e8f5295" class="structurizr relationship link joint-theme-default"><path class="connection" stroke="#707070" id="v-242" stroke-width="2" stroke-dasharray="30 30" fill="none" d="M 1465 668 1968 342"></path><path class="marker-source" fill="black" stroke="black" id="v-243" transform="translate(1465,668) scale(1,1) rotate(-32.94634246826172)"></path><path class="marker-target" fill="#707070" stroke="#707070" id="v-244" d="M 20 0 L 0 10 L 20 20 z" transform="translate(1990.4384902605252,339.3918081800046) scale(1,1) rotate(-212.9463348388672)"></path><path class="connection-wrap" id="v-245" fill="none" d="M 1465 668 1968 342"></path><title class="tooltip" id="v-246"></title><g class="labels" id="v-247"><g class="label" id="v-255" label-idx="0" cursor="move" transform="translate(1716.5, 505)"><rect fill="#ffffff" rx="3" ry="3" stroke="#ffffff" stroke-width="20px" pointer-events="none" x="-24.015625" y="-16.0703125" width="48.03125" height="27.515625"></rect><text text-anchor="middle" font-size="24px" fill="#707070" font-family="Open Sans" font-weight="bold" pointer-events="none" id="v-256" y="0.8em" display="null" xml:space="preserve" transform="translate(0,-13.7578125)"><tspan dy="0em" x="0" id="v-257" class="v-line">ETL</tspan></text></g><g class="label" id="v-258" label-idx="1" cursor="move" transform="translate(1716.5, 533.8)"><rect fill="#ffffff" rx="3" ry="3" pointer-events="none" x="-302.421875" y="-13.0703125" width="604.84375" height="22.015625"></rect><text text-anchor="middle" font-size="19px" fill="#707070" font-family="Open Sans" font-weight="normal" pointer-events="none" id="v-259" y="0.8em" display="null" xml:space="preserve" transform="translate(0,-11.0078125)"><tspan dy="0em" x="0" id="v-260" class="v-line">[Jenkins,&#160;Bash,&#160;FTP,&#160;XML,&#160;SOAP&#160;Web&#160;Services,&#160;SQL,&#160;Postgres,&#160;Python,&#160;Java]</tspan></text></g></g><g class="marker-vertices" id="v-248"></g><g class="marker-arrowheads" id="v-249" display="none"><g class="marker-arrowhead-group marker-arrowhead-group-source" id="v-252"><path class="marker-arrowhead" end="source" d="M 26 0 L 0 13 L 26 26 z"></path></g><g class="marker-arrowhead-group marker-arrowhead-group-target" id="v-253"><path class="marker-arrowhead" end="target" d="M 26 0 L 0 13 L 26 26 z"></path></g></g><g class="link-tools" id="v-250" display="none"><g class="link-tool" id="v-251" transform="translate(1498.566650390625, 646.2449951171875) "><g class="tool-remove" event="remove"><circle r="11"></circle><path transform="scale(.8) translate(-16, -16)" d="M24.778,21.419 19.276,15.917 24.777,10.415 21.949,7.585 16.447,13.087 10.945,7.585 8.117,10.415 13.618,15.917 8.116,21.419 10.946,24.248 16.447,18.746 21.948,24.248z"></path><title>Remove link.</title></g><g class="tool-options" event="link:options"><circle r="11" transform="translate(25)"></circle><path fill="white" transform="scale(.55) translate(29, -16)" d="M31.229,17.736c0.064-0.571,0.104-1.148,0.104-1.736s-0.04-1.166-0.104-1.737l-4.377-1.557c-0.218-0.716-0.504-1.401-0.851-2.05l1.993-4.192c-0.725-0.91-1.549-1.734-2.458-2.459l-4.193,1.994c-0.647-0.347-1.334-0.632-2.049-0.849l-1.558-4.378C17.165,0.708,16.588,0.667,16,0.667s-1.166,0.041-1.737,0.105L12.707,5.15c-0.716,0.217-1.401,0.502-2.05,0.849L6.464,4.005C5.554,4.73,4.73,5.554,4.005,6.464l1.994,4.192c-0.347,0.648-0.632,1.334-0.849,2.05l-4.378,1.557C0.708,14.834,0.667,15.412,0.667,16s0.041,1.165,0.105,1.736l4.378,1.558c0.217,0.715,0.502,1.401,0.849,2.049l-1.994,4.193c0.725,0.909,1.549,1.733,2.459,2.458l4.192-1.993c0.648,0.347,1.334,0.633,2.05,0.851l1.557,4.377c0.571,0.064,1.148,0.104,1.737,0.104c0.588,0,1.165-0.04,1.736-0.104l1.558-4.377c0.715-0.218,1.399-0.504,2.049-0.851l4.193,1.993c0.909-0.725,1.733-1.549,2.458-2.458l-1.993-4.193c0.347-0.647,0.633-1.334,0.851-2.049L31.229,17.736zM16,20.871c-2.69,0-4.872-2.182-4.872-4.871c0-2.69,2.182-4.872,4.872-4.872c2.689,0,4.871,2.182,4.871,4.872C20.871,18.689,18.689,20.871,16,20.871z"></path><title>Link options.</title></g></g></g></g><g id="j_16" model-id="741243b8-f954-475e-aecc-5cf48c4cc9b4" class="structurizr relationship link joint-theme-default"><path class="connection" stroke="#707070" id="v-263" stroke-width="2" stroke-dasharray="30 30" fill="none" d="M 1015 669 482 326"></path><path class="marker-source" fill="black" stroke="black" id="v-264" transform="translate(1015,669) scale(1,1) rotate(-147.2332000732422)"></path><path class="marker-target" fill="#707070" stroke="#707070" id="v-265" d="M 20 0 L 0 10 L 20 20 z" transform="translate(470.4122241278044,306.5911860491189) scale(1,1) rotate(32.76681518554686)"></path><path class="connection-wrap" id="v-266" fill="none" d="M 1015 669 482 326"></path><title class="tooltip" id="v-267"></title><g class="labels" id="v-268"><g class="label" id="v-276" label-idx="0" cursor="move" transform="translate(748.5, 497.4999694824219)"><rect fill="#ffffff" rx="3" ry="3" stroke="#ffffff" stroke-width="20px" pointer-events="none" x="-24.015625" y="-16.0703125" width="48.03125" height="27.515625"></rect><text text-anchor="middle" font-size="24px" fill="#707070" font-family="Open Sans" font-weight="bold" pointer-events="none" id="v-277" y="0.8em" display="null" xml:space="preserve" transform="translate(0,-13.7578125)"><tspan dy="0em" x="0" id="v-278" class="v-line">ETL</tspan></text></g><g class="label" id="v-279" label-idx="1" cursor="move" transform="translate(748.5, 526.2999694824218)"><rect fill="#ffffff" rx="3" ry="3" pointer-events="none" x="-225.890625" y="-13.0703125" width="451.78125" height="22.015625"></rect><text text-anchor="middle" font-size="19px" fill="#707070" font-family="Open Sans" font-weight="normal" pointer-events="none" id="v-280" y="0.8em" display="null" xml:space="preserve" transform="translate(0,-11.0078125)"><tspan dy="0em" x="0" id="v-281" class="v-line">[Jenkins,&#160;Bash,&#160;HTTP,&#160;XML,&#160;SQL,&#160;Postgres,&#160;Python,&#160;Java]</tspan></text></g></g><g class="marker-vertices" id="v-269"></g><g class="marker-arrowheads" id="v-270" display="none"><g class="marker-arrowhead-group marker-arrowhead-group-source" id="v-273"><path class="marker-arrowhead" end="source" d="M 26 0 L 0 13 L 26 26 z"></path></g><g class="marker-arrowhead-group marker-arrowhead-group-target" id="v-274"><path class="marker-arrowhead" end="target" d="M 26 0 L 0 13 L 26 26 z"></path></g></g><g class="link-tools" id="v-271" display="none"><g class="link-tool" id="v-272" transform="translate(981.3631591796875, 647.3536987304688) "><g class="tool-remove" event="remove"><circle r="11"></circle><path transform="scale(.8) translate(-16, -16)" d="M24.778,21.419 19.276,15.917 24.777,10.415 21.949,7.585 16.447,13.087 10.945,7.585 8.117,10.415 13.618,15.917 8.116,21.419 10.946,24.248 16.447,18.746 21.948,24.248z"></path><title>Remove link.</title></g><g class="tool-options" event="link:options"><circle r="11" transform="translate(25)"></circle><path fill="white" transform="scale(.55) translate(29, -16)" d="M31.229,17.736c0.064-0.571,0.104-1.148,0.104-1.736s-0.04-1.166-0.104-1.737l-4.377-1.557c-0.218-0.716-0.504-1.401-0.851-2.05l1.993-4.192c-0.725-0.91-1.549-1.734-2.458-2.459l-4.193,1.994c-0.647-0.347-1.334-0.632-2.049-0.849l-1.558-4.378C17.165,0.708,16.588,0.667,16,0.667s-1.166,0.041-1.737,0.105L12.707,5.15c-0.716,0.217-1.401,0.502-2.05,0.849L6.464,4.005C5.554,4.73,4.73,5.554,4.005,6.464l1.994,4.192c-0.347,0.648-0.632,1.334-0.849,2.05l-4.378,1.557C0.708,14.834,0.667,15.412,0.667,16s0.041,1.165,0.105,1.736l4.378,1.558c0.217,0.715,0.502,1.401,0.849,2.049l-1.994,4.193c0.725,0.909,1.549,1.733,2.459,2.458l4.192-1.993c0.648,0.347,1.334,0.633,2.05,0.851l1.557,4.377c0.571,0.064,1.148,0.104,1.737,0.104c0.588,0,1.165-0.04,1.736-0.104l1.558-4.377c0.715-0.218,1.399-0.504,2.049-0.851l4.193,1.993c0.909-0.725,1.733-1.549,2.458-2.458l-1.993-4.193c0.347-0.647,0.633-1.334,0.851-2.049L31.229,17.736zM16,20.871c-2.69,0-4.872-2.182-4.872-4.871c0-2.69,2.182-4.872,4.872-4.872c2.689,0,4.871,2.182,4.871,4.872C20.871,18.689,18.689,20.871,16,20.871z"></path><title>Link options.</title></g></g></g></g><g id="j_17" model-id="fe970e3d-19c5-40bf-add5-4775f4e07356" class="structurizr relationship link joint-theme-default"><path class="connection" stroke="#707070" id="v-284" stroke-width="2" stroke-dasharray="30 30" fill="none" d="M 912 1185 1094 979"></path><path class="marker-source" fill="black" stroke="black" id="v-285" transform="translate(912,1185) scale(1,1) rotate(-48.57633590698241)"></path><path class="marker-target" fill="#707070" stroke="#707070" id="v-286" d="M 20 0 L 0 10 L 20 20 z" transform="translate(1114.4983839046984,970.6161885508642) scale(1,1) rotate(-228.57633972167966)"></path><path class="connection-wrap" id="v-287" fill="none" d="M 912 1185 1094 979"></path><title class="tooltip" id="v-288"></title><g class="labels" id="v-289"><g class="label" id="v-297" label-idx="0" cursor="move" transform="translate(1003, 1082)"><rect fill="#ffffff" rx="3" ry="3" stroke="#ffffff" stroke-width="20px" pointer-events="none" x="-73.015625" y="-30.46875" width="146.03125" height="56.3125"></rect><text text-anchor="middle" font-size="24px" fill="#707070" font-family="Open Sans" font-weight="bold" pointer-events="none" id="v-298" y="0.8em" display="null" xml:space="preserve" transform="translate(0,-28.15625)"><tspan dy="0em" x="0" id="v-299" class="v-line">Conducts&#160;case</tspan><tspan dy="1.2em" x="0" id="v-300" class="v-line">studies</tspan></text></g><g class="label" id="v-301" label-idx="1" cursor="move" transform="translate(1003, 1125.2)"><rect fill="#ffffff" rx="3" ry="3" pointer-events="none" x="-61.234375" y="-13.0703125" width="122.46875" height="22.015625"></rect><text text-anchor="middle" font-size="19px" fill="#707070" font-family="Open Sans" font-weight="normal" pointer-events="none" id="v-302" y="0.8em" display="null" xml:space="preserve" transform="translate(0,-11.0078125)"><tspan dy="0em" x="0" id="v-303" class="v-line">[SQL,&#160;Postgres]</tspan></text></g></g><g class="marker-vertices" id="v-290"></g><g class="marker-arrowheads" id="v-291" display="none"><g class="marker-arrowhead-group marker-arrowhead-group-source" id="v-294"><path class="marker-arrowhead" end="source" d="M 26 0 L 0 13 L 26 26 z"></path></g><g class="marker-arrowhead-group marker-arrowhead-group-target" id="v-295"><path class="marker-arrowhead" end="target" d="M 26 0 L 0 13 L 26 26 z"></path></g></g><g class="link-tools" id="v-292" display="none"><g class="link-tool" id="v-293" transform="translate(938.484130859375, 1155.0234375) "><g class="tool-remove" event="remove"><circle r="11"></circle><path transform="scale(.8) translate(-16, -16)" d="M24.778,21.419 19.276,15.917 24.777,10.415 21.949,7.585 16.447,13.087 10.945,7.585 8.117,10.415 13.618,15.917 8.116,21.419 10.946,24.248 16.447,18.746 21.948,24.248z"></path><title>Remove link.</title></g><g class="tool-options" event="link:options"><circle r="11" transform="translate(25)"></circle><path fill="white" transform="scale(.55) translate(29, -16)" d="M31.229,17.736c0.064-0.571,0.104-1.148,0.104-1.736s-0.04-1.166-0.104-1.737l-4.377-1.557c-0.218-0.716-0.504-1.401-0.851-2.05l1.993-4.192c-0.725-0.91-1.549-1.734-2.458-2.459l-4.193,1.994c-0.647-0.347-1.334-0.632-2.049-0.849l-1.558-4.378C17.165,0.708,16.588,0.667,16,0.667s-1.166,0.041-1.737,0.105L12.707,5.15c-0.716,0.217-1.401,0.502-2.05,0.849L6.464,4.005C5.554,4.73,4.73,5.554,4.005,6.464l1.994,4.192c-0.347,0.648-0.632,1.334-0.849,2.05l-4.378,1.557C0.708,14.834,0.667,15.412,0.667,16s0.041,1.165,0.105,1.736l4.378,1.558c0.217,0.715,0.502,1.401,0.849,2.049l-1.994,4.193c0.725,0.909,1.549,1.733,2.459,2.458l4.192-1.993c0.648,0.347,1.334,0.633,2.05,0.851l1.557,4.377c0.571,0.064,1.148,0.104,1.737,0.104c0.588,0,1.165-0.04,1.736-0.104l1.558-4.377c0.715-0.218,1.399-0.504,2.049-0.851l4.193,1.993c0.909-0.725,1.733-1.549,2.458-2.458l-1.993-4.193c0.347-0.647,0.633-1.334,0.851-2.049L31.229,17.736zM16,20.871c-2.69,0-4.872-2.182-4.872-4.871c0-2.69,2.182-4.872,4.872-4.872c2.689,0,4.871,2.182,4.871,4.872C20.871,18.689,18.689,20.871,16,20.871z"></path><title>Link options.</title></g></g></g></g><g id="j_18" model-id="deeafd93-b16a-4027-a2ff-d8ddb481983b" class="structurizr relationship link joint-theme-default"><path class="connection" stroke="#707070" id="v-306" stroke-width="2" stroke-dasharray="30 30" fill="none" d="M 1471 1185 1344 981"></path><path class="marker-source" fill="black" stroke="black" id="v-307" transform="translate(1471,1185) scale(1,1) rotate(-121.98207092285155)"></path><path class="marker-target" fill="#707070" stroke="#707070" id="v-308" d="M 20 0 L 0 10 L 20 20 z" transform="translate(1341.4821052381276,958.7034384148657) scale(1,1) rotate(58.0179138183594)"></path><path class="connection-wrap" id="v-309" fill="none" d="M 1471 1185 1344 981"></path><title class="tooltip" id="v-310"></title><g class="labels" id="v-311"><g class="label" id="v-319" label-idx="0" cursor="move" transform="translate(1407.5, 1083)"><rect fill="#ffffff" rx="3" ry="3" stroke="#ffffff" stroke-width="20px" pointer-events="none" x="-82.671875" y="-30.46875" width="165.34375" height="56.3125"></rect><text text-anchor="middle" font-size="24px" fill="#707070" font-family="Open Sans" font-weight="bold" pointer-events="none" id="v-320" y="0.8em" display="null" xml:space="preserve" transform="translate(0,-28.15625)"><tspan dy="0em" x="0" id="v-321" class="v-line">Uses&#160;ERNIE&#160;for</tspan><tspan dy="1.2em" x="0" id="v-322" class="v-line">case&#160;studies</tspan></text></g><g class="label" id="v-323" label-idx="1" cursor="move" transform="translate(1407.5, 1126.2)"><rect fill="#ffffff" rx="3" ry="3" pointer-events="none" x="-71.5" y="-13.0703125" width="143" height="22.015625"></rect><text text-anchor="middle" font-size="19px" fill="#707070" font-family="Open Sans" font-weight="normal" pointer-events="none" id="v-324" y="0.8em" display="null" xml:space="preserve" transform="translate(0,-11.0078125)"><tspan dy="0em" x="0" id="v-325" class="v-line">[Web&#160;Application]</tspan></text></g></g><g class="marker-vertices" id="v-312"></g><g class="marker-arrowheads" id="v-313" display="none"><g class="marker-arrowhead-group marker-arrowhead-group-source" id="v-316"><path class="marker-arrowhead" end="source" d="M 26 0 L 0 13 L 26 26 z"></path></g><g class="marker-arrowhead-group marker-arrowhead-group-target" id="v-317"><path class="marker-arrowhead" end="target" d="M 26 0 L 0 13 L 26 26 z"></path></g></g><g class="link-tools" id="v-314" display="none"><g class="link-tool" id="v-315" transform="translate(1449.85986328125, 1151.042724609375) "><g class="tool-remove" event="remove"><circle r="11"></circle><path transform="scale(.8) translate(-16, -16)" d="M24.778,21.419 19.276,15.917 24.777,10.415 21.949,7.585 16.447,13.087 10.945,7.585 8.117,10.415 13.618,15.917 8.116,21.419 10.946,24.248 16.447,18.746 21.948,24.248z"></path><title>Remove link.</title></g><g class="tool-options" event="link:options"><circle r="11" transform="translate(25)"></circle><path fill="white" transform="scale(.55) translate(29, -16)" d="M31.229,17.736c0.064-0.571,0.104-1.148,0.104-1.736s-0.04-1.166-0.104-1.737l-4.377-1.557c-0.218-0.716-0.504-1.401-0.851-2.05l1.993-4.192c-0.725-0.91-1.549-1.734-2.458-2.459l-4.193,1.994c-0.647-0.347-1.334-0.632-2.049-0.849l-1.558-4.378C17.165,0.708,16.588,0.667,16,0.667s-1.166,0.041-1.737,0.105L12.707,5.15c-0.716,0.217-1.401,0.502-2.05,0.849L6.464,4.005C5.554,4.73,4.73,5.554,4.005,6.464l1.994,4.192c-0.347,0.648-0.632,1.334-0.849,2.05l-4.378,1.557C0.708,14.834,0.667,15.412,0.667,16s0.041,1.165,0.105,1.736l4.378,1.558c0.217,0.715,0.502,1.401,0.849,2.049l-1.994,4.193c0.725,0.909,1.549,1.733,2.459,2.458l4.192-1.993c0.648,0.347,1.334,0.633,2.05,0.851l1.557,4.377c0.571,0.064,1.148,0.104,1.737,0.104c0.588,0,1.165-0.04,1.736-0.104l1.558-4.377c0.715-0.218,1.399-0.504,2.049-0.851l4.193,1.993c0.909-0.725,1.733-1.549,2.458-2.458l-1.993-4.193c0.347-0.647,0.633-1.334,0.851-2.049L31.229,17.736zM16,20.871c-2.69,0-4.872-2.182-4.872-4.871c0-2.69,2.182-4.872,4.872-4.872c2.689,0,4.871,2.182,4.871,4.872C20.871,18.689,18.689,20.871,16,20.871z"></path><title>Link options.</title></g></g></g></g></g><defs id="v-4"></defs></svg>